<svg width="599" height="155" viewBox="0 0 599 155" fill="none" xmlns="http://www.w3.org/2000/svg">
<path d="M0.2 152L-1.69066 151.348L-2.60559 154H0.2V152ZM51.6 2.99999V0.999987H50.1743L49.7093 2.34777L51.6 2.99999ZM86.8 2.99999L88.6907 2.34777L88.2257 0.999987H86.8V2.99999ZM138.2 152V154H141.006L140.091 151.348L138.2 152ZM108.6 152L106.701 152.629L107.156 154H108.6V152ZM98 120L99.8986 119.371L99.4444 118H98V120ZM40.4 120V118H38.9642L38.505 119.36L40.4 120ZM29.6 152V154H31.0358L31.495 152.64L29.6 152ZM48.2 96L46.3032 95.366L45.4228 98H48.2V96ZM90.2 96V98H92.9772L92.0969 95.366L90.2 96ZM65.4 21.8V19.8H62.6228L63.5032 22.434L65.4 21.8ZM73 21.8L74.8969 22.434L75.7772 19.8H73V21.8ZM2.09067 152.652L53.4907 3.6522L49.7093 2.34777L-1.69066 151.348L2.09067 152.652ZM51.6 4.99999H86.8V0.999987H51.6V4.99999ZM84.9093 3.6522L136.309 152.652L140.091 151.348L88.6907 2.34777L84.9093 3.6522ZM138.2 150H108.6V154H138.2V150ZM110.499 151.371L99.8986 119.371L96.1014 120.629L106.701 152.629L110.499 151.371ZM98 118H40.4V122H98V118ZM38.505 119.36L27.705 151.36L31.495 152.64L42.295 120.64L38.505 119.36ZM29.6 150H0.2V154H29.6V150ZM48.2 98H90.2V94H48.2V98ZM92.0969 95.366L67.2969 21.166L63.5032 22.434L88.3032 96.634L92.0969 95.366ZM65.4 23.8H73V19.8H65.4V23.8ZM71.1031 21.166L46.3032 95.366L50.0969 96.634L74.8969 22.434L71.1031 21.166ZM190.183 149.8L189.303 151.596L189.325 151.607L189.347 151.617L190.183 149.8ZM174.583 136.2L172.794 135.306L172.278 136.337L172.913 137.301L174.583 136.2ZM177.183 131H179.183L175.394 130.106L177.183 131ZM177.183 152V154H179.183V152H177.183ZM152.583 152H150.583V154H152.583V152ZM152.583 0.599994V-1.40001H150.583V0.599994H152.583ZM178.783 0.599994H180.783V-1.40001H178.783V0.599994ZM178.783 64.8L177.176 65.9905L180.783 70.8601V64.8H178.783ZM174.783 59.4L173.095 58.3262L172.358 59.4859L173.176 60.5905L174.783 59.4ZM189.983 45.8L190.877 47.5889L190.892 47.5815L190.907 47.5738L189.983 45.8ZM239.983 48.4L238.938 50.1052L239.983 48.4ZM259.583 68.8L257.84 69.7805L257.845 69.7908L257.851 69.801L259.583 68.8ZM259.783 126.4L258.033 125.431L259.783 126.4ZM240.183 147L241.208 148.717L241.218 148.711L241.228 148.705L240.183 147ZM224.983 126.2L223.954 124.485L224.983 126.2ZM235.783 114.6L234.023 113.649L234.013 113.668L234.004 113.686L235.783 114.6ZM235.783 80.8L234.004 81.7136L234.019 81.7427L234.035 81.7713L235.783 80.8ZM224.983 69.2L223.918 70.8933L223.936 70.9043L223.954 70.915L224.983 69.2ZM193.383 69L192.354 67.285L192.343 67.2916L192.332 67.2984L193.383 69ZM182.583 80.8L180.813 79.8685L180.808 79.8774L180.804 79.8864L182.583 80.8ZM182.583 114.6L180.804 115.514L180.813 115.532L180.823 115.551L182.583 114.6ZM193.383 126.2L192.332 127.902L192.343 127.908L192.354 127.915L193.383 126.2ZM211.983 152.4C204.384 152.4 197.405 150.921 191.019 147.983L189.347 151.617C196.294 154.813 203.849 156.4 211.983 156.4V152.4ZM191.063 148.004C184.838 144.955 179.916 140.657 176.253 135.099L172.913 137.301C176.983 143.476 182.461 148.245 189.303 151.596L191.063 148.004ZM176.372 137.094L178.972 131.894L175.394 130.106L172.794 135.306L176.372 137.094ZM175.183 131V152H179.183V131H175.183ZM177.183 150H152.583V154H177.183V150ZM154.583 152V0.599994H150.583V152H154.583ZM152.583 2.59999H178.783V-1.40001H152.583V2.59999ZM176.783 0.599994V64.8H180.783V0.599994H176.783ZM180.39 63.6095L176.39 58.2095L173.176 60.5905L177.176 65.9905L180.39 63.6095ZM176.47 60.4737C180.003 54.9221 184.792 50.6317 190.877 47.5889L189.088 44.0111C182.374 47.3683 177.029 52.1446 173.095 58.3262L176.47 60.4737ZM190.907 47.5738C196.978 44.4117 204.052 42.8 212.183 42.8V38.8C203.514 38.8 195.788 40.5216 189.059 44.0262L190.907 47.5738ZM212.183 42.8C222.103 42.8 231.004 45.2428 238.938 50.1052L241.028 46.6948C232.428 41.4238 222.796 38.8 212.183 38.8V42.8ZM238.938 50.1052C246.911 54.9919 253.205 61.5412 257.84 69.7805L261.326 67.8195C256.361 58.9921 249.588 51.9414 241.028 46.6948L238.938 50.1052ZM257.851 69.801C262.594 78.0053 264.983 87.255 264.983 97.6H268.983C268.983 86.6117 266.438 76.6614 261.314 67.799L257.851 69.801ZM264.983 97.6C264.983 107.816 262.659 117.08 258.033 125.431L261.532 127.369C266.507 118.387 268.983 108.45 268.983 97.6H264.983ZM258.033 125.431C253.397 133.802 247.103 140.413 239.138 145.295L241.228 148.705C249.796 143.454 256.569 136.331 261.532 127.369L258.033 125.431ZM239.158 145.283C231.23 150.014 222.19 152.4 211.983 152.4V156.4C222.842 156.4 232.602 153.853 241.208 148.717L239.158 145.283ZM208.983 132.4C215.307 132.4 221.003 130.92 226.012 127.915L223.954 124.485C219.629 127.08 214.659 128.4 208.983 128.4V132.4ZM226.012 127.915C231.005 124.919 234.862 120.772 237.562 115.514L234.004 113.686C231.637 118.295 228.294 121.881 223.954 124.485L226.012 127.915ZM237.542 115.551C240.388 110.287 241.783 104.285 241.783 97.6H237.783C237.783 103.715 236.511 109.047 234.023 113.649L237.542 115.551ZM241.783 97.6C241.783 90.9167 240.388 84.9717 237.531 79.8287L234.035 81.7713C236.511 86.2283 237.783 91.4832 237.783 97.6H241.783ZM237.562 79.8864C234.862 74.6279 231.005 70.4808 226.012 67.485L223.954 70.915C228.294 73.5192 231.637 77.1055 234.004 81.7136L237.562 79.8864ZM226.047 67.5067C221.034 64.3553 215.325 62.8 208.983 62.8V66.8C214.641 66.8 219.599 68.178 223.918 70.8933L226.047 67.5067ZM208.983 62.8C202.907 62.8 197.348 64.2884 192.354 67.285L194.412 70.715C198.751 68.1116 203.592 66.8 208.983 66.8V62.8ZM192.332 67.2984C187.472 70.3002 183.633 74.5099 180.813 79.8685L184.353 81.7315C186.866 76.9567 190.227 73.2998 194.434 70.7016L192.332 67.2984ZM180.804 79.8864C178.107 85.1373 176.783 91.0573 176.783 97.6H180.783C180.783 91.6094 181.992 86.3294 184.362 81.7136L180.804 79.8864ZM176.783 97.6C176.783 104.269 178.104 110.257 180.804 115.514L184.362 113.686C181.995 109.076 180.783 103.731 180.783 97.6H176.783ZM180.823 115.551C183.647 120.775 187.485 124.908 192.332 127.902L194.434 124.498C190.214 121.892 186.852 118.291 184.342 113.649L180.823 115.551ZM192.354 127.915C197.348 130.912 202.907 132.4 208.983 132.4V128.4C203.592 128.4 198.751 127.088 194.412 124.485L192.354 127.915ZM310.958 147L309.968 148.738L309.98 148.745L310.958 147ZM290.158 126.8L288.438 127.821L288.444 127.831L288.45 127.841L290.158 126.8ZM290.158 68.4L288.45 67.3593L288.444 67.3691L288.438 67.3789L290.158 68.4ZM310.958 48.2L309.968 46.4619L310.958 48.2ZM369.158 48.2L370.147 46.4619L369.158 48.2ZM389.758 68.4L388.038 69.4211L388.048 69.437L388.057 69.4527L389.758 68.4ZM389.758 126.8L391.466 127.841V127.841L389.758 126.8ZM368.958 147L369.947 148.738L368.958 147ZM355.558 126.2L354.507 124.498L354.495 124.505L354.484 124.513L355.558 126.2ZM366.158 114.6L364.388 113.669L364.383 113.677L364.379 113.686L366.158 114.6ZM366.158 80.8L364.379 81.7136L364.394 81.7427L364.41 81.7713L366.158 80.8ZM355.558 69.2L354.448 70.8641L354.477 70.8833L354.507 70.9016L355.558 69.2ZM324.358 69.2L325.409 70.9016L325.427 70.8905L325.444 70.8791L324.358 69.2ZM313.558 80.8L311.798 79.849L311.794 79.8577L311.789 79.8665L313.558 80.8ZM313.558 114.6L311.769 115.494L311.783 115.523L311.798 115.551L313.558 114.6ZM324.358 126.2L325.409 124.498L324.358 126.2ZM340.158 152.4C329.813 152.4 320.42 150.012 311.936 145.255L309.98 148.745C319.096 153.855 329.169 156.4 340.158 156.4V152.4ZM311.947 145.262C303.576 140.497 296.89 134.004 291.866 125.759L288.45 127.841C293.826 136.663 301.006 143.637 309.968 148.738L311.947 145.262ZM291.878 125.779C287.013 117.585 284.558 108.212 284.558 97.6H280.558C280.558 108.855 283.17 118.948 288.438 127.821L291.878 125.779ZM284.558 97.6C284.558 86.9884 287.013 77.6146 291.878 69.4211L288.438 67.3789C283.17 76.2521 280.558 86.3449 280.558 97.6H284.558ZM291.866 69.4407C296.89 61.1964 303.576 54.7033 311.947 49.9381L309.968 46.4619C301.006 51.5633 293.826 58.5369 288.45 67.3593L291.866 69.4407ZM311.947 49.9381C320.288 45.1905 329.675 42.8 340.158 42.8V38.8C329.041 38.8 318.961 41.3428 309.968 46.4619L311.947 49.9381ZM340.158 42.8C350.503 42.8 359.824 45.1884 368.168 49.9381L370.147 46.4619C361.158 41.345 351.146 38.8 340.158 38.8V42.8ZM368.168 49.9381C376.535 54.7007 383.149 61.1876 388.038 69.4211L391.478 67.3789C386.233 58.5457 379.114 51.5659 370.147 46.4619L368.168 49.9381ZM388.057 69.4527C393.039 77.4995 395.558 86.8593 395.558 97.6H399.558C399.558 86.2074 396.877 76.1005 391.458 67.3473L388.057 69.4527ZM395.558 97.6C395.558 108.202 393.041 117.569 388.05 125.759L391.466 127.841C396.875 118.965 399.558 108.865 399.558 97.6H395.558ZM388.05 125.759C383.026 134.004 376.34 140.497 367.968 145.262L369.947 148.738C378.909 143.637 386.09 136.663 391.466 127.841L388.05 125.759ZM367.968 145.262C359.62 150.014 350.364 152.4 340.158 152.4V156.4C351.018 156.4 360.962 153.853 369.947 148.738L367.968 145.262ZM340.158 132.4C346.356 132.4 351.872 130.916 356.632 127.887L354.484 124.513C350.444 127.084 345.693 128.4 340.158 128.4V132.4ZM356.609 127.902C361.465 124.902 365.244 120.757 367.937 115.514L364.379 113.686C362.005 118.309 358.717 121.898 354.507 124.498L356.609 127.902ZM367.928 115.531C370.759 110.151 372.158 104.16 372.158 97.6H368.158C368.158 103.573 366.89 108.916 364.388 113.669L367.928 115.531ZM372.158 97.6C372.158 90.9167 370.763 84.9717 367.906 79.8287L364.41 81.7713C366.886 86.2283 368.158 91.4832 368.158 97.6H372.158ZM367.937 79.8864C365.244 74.6428 361.465 70.4979 356.609 67.4984L354.507 70.9016C358.717 73.5021 362.005 77.0905 364.379 81.7136L367.937 79.8864ZM356.667 67.5359C351.903 64.3599 346.374 62.8 340.158 62.8V66.8C345.674 66.8 350.412 68.1734 354.448 70.8641L356.667 67.5359ZM340.158 62.8C333.817 62.8 328.164 64.3552 323.271 67.5209L325.444 70.8791C329.619 68.1781 334.499 66.8 340.158 66.8V62.8ZM323.307 67.4984C318.46 70.4921 314.622 74.6246 311.798 79.849L315.317 81.751C317.827 77.1088 321.189 73.5079 325.409 70.9016L323.307 67.4984ZM311.789 79.8665C309.079 85.0016 307.758 90.9329 307.758 97.6H311.758C311.758 91.4671 312.97 86.1983 315.327 81.7335L311.789 79.8665ZM307.758 97.6C307.758 104.144 309.083 110.122 311.769 115.494L315.347 113.706C312.966 108.945 311.758 103.59 311.758 97.6H307.758ZM311.798 115.551C314.622 120.775 318.46 124.908 323.307 127.902L325.409 124.498C321.189 121.892 317.827 118.291 315.317 113.649L311.798 115.551ZM323.307 127.902C328.195 130.92 333.835 132.4 340.158 132.4V128.4C334.481 128.4 329.588 127.08 325.409 124.498L323.307 127.902ZM434.227 148.8L433.187 150.508L433.195 150.513L433.203 150.518L434.227 148.8ZM420.027 133.2L418.224 134.065L418.23 134.08L418.238 134.094L420.027 133.2ZM415.227 43.2V41.2H413.227V43.2H415.227ZM441.427 43.2H443.427V41.2H441.427V43.2ZM444.027 119.6L442.238 120.494L442.259 120.536L442.282 120.577L444.027 119.6ZM451.827 127.6L450.798 129.315L450.837 129.339L450.878 129.361L451.827 127.6ZM474.827 127.6L475.804 129.345L475.83 129.33L475.856 129.315L474.827 127.6ZM482.627 119.4L484.388 120.348L482.627 119.4ZM485.427 43.2V41.2H483.427V43.2H485.427ZM511.627 43.2H513.627V41.2H511.627V43.2ZM511.627 152V154H513.627V152H511.627ZM486.827 152H484.827V154H486.827V152ZM486.827 130.6L488.557 129.598L484.827 123.154V130.6H486.827ZM489.027 134.4L490.896 135.11L491.234 134.221L490.757 133.398L489.027 134.4ZM476.427 149.4L475.439 147.661L475.43 147.666L475.421 147.671L476.427 149.4ZM456.227 152.4C448.131 152.4 441.163 150.604 435.25 147.082L433.203 150.518C439.824 154.462 447.522 156.4 456.227 156.4V152.4ZM435.266 147.092C429.467 143.561 424.987 138.649 421.815 132.306L418.238 134.094C421.732 141.084 426.72 146.572 433.187 150.508L435.266 147.092ZM421.83 132.335C418.783 125.988 417.227 118.495 417.227 109.8H413.227C413.227 118.972 414.87 127.078 418.224 134.065L421.83 132.335ZM417.227 109.8V43.2H413.227V109.8H417.227ZM415.227 45.2H441.427V41.2H415.227V45.2ZM439.427 43.2V107.6H443.427V43.2H439.427ZM439.427 107.6C439.427 112.391 440.344 116.707 442.238 120.494L445.815 118.706C444.243 115.56 443.427 111.875 443.427 107.6H439.427ZM442.282 120.577C444.322 124.22 447.171 127.139 450.798 129.315L452.856 125.885C449.816 124.061 447.465 121.646 445.772 118.623L442.282 120.577ZM450.878 129.361C454.66 131.397 458.857 132.4 463.427 132.4V128.4C459.462 128.4 455.926 127.536 452.775 125.839L450.878 129.361ZM463.427 132.4C467.995 132.4 472.138 131.398 475.804 129.345L473.849 125.855C470.848 127.536 467.392 128.4 463.427 128.4V132.4ZM475.856 129.315C479.502 127.127 482.353 124.127 484.388 120.348L480.866 118.452C479.167 121.606 476.818 124.073 473.798 125.885L475.856 129.315ZM484.388 120.348C486.442 116.533 487.427 112.059 487.427 107H483.427C483.427 111.541 482.545 115.334 480.866 118.452L484.388 120.348ZM487.427 107V43.2H483.427V107H487.427ZM485.427 45.2H511.627V41.2H485.427V45.2ZM509.627 43.2V152H513.627V43.2H509.627ZM511.627 150H486.827V154H511.627V150ZM488.827 152V130.6H484.827V152H488.827ZM485.096 131.602L487.296 135.402L490.757 133.398L488.557 129.598L485.096 131.602ZM487.157 133.69C484.779 139.948 480.876 144.571 475.439 147.661L477.415 151.139C483.71 147.562 488.208 142.185 490.896 135.11L487.157 133.69ZM475.421 147.671C470.041 150.799 463.666 152.4 456.227 152.4V156.4C464.254 156.4 471.346 154.667 477.432 151.129L475.421 147.671ZM556.981 143.2L555.553 144.6L555.567 144.614L555.581 144.628L556.981 143.2ZM546.981 66.6H548.981V64.6H546.981V66.6ZM528.181 66.6H526.181V68.6H528.181V66.6ZM528.181 43.2V41.2H526.181V43.2H528.181ZM542.581 39L543.962 40.4467L542.581 39ZM546.981 18.4V16.4H544.981V18.4H546.981ZM573.181 18.4H575.181V16.4H573.181V18.4ZM573.181 43.2H571.181V45.2H573.181V43.2ZM598.181 43.2H600.181V41.2H598.181V43.2ZM598.181 66.6V68.6H600.181V66.6H598.181ZM573.181 66.6V64.6H571.181V66.6H573.181ZM574.981 122.4L573.174 123.256L573.192 123.294L573.211 123.331L574.981 122.4ZM580.981 128.2L580.087 129.989L580.104 129.997L580.121 130.006L580.981 128.2ZM594.781 130L594.582 128.01L594.571 128.011L594.56 128.012L594.781 130ZM598.581 129.6H600.581V127.365L598.36 127.612L598.581 129.6ZM598.581 152L598.864 153.98L600.581 153.735V152H598.581ZM592.181 152.8L592.402 154.788L592.181 152.8ZM585.581 151.2C573.681 151.2 564.708 147.975 558.381 141.772L555.581 144.628C562.854 151.758 572.948 155.2 585.581 155.2V151.2ZM558.409 141.8C552.206 135.473 548.981 126.5 548.981 114.6H544.981C544.981 127.233 548.423 137.327 555.553 144.6L558.409 141.8ZM548.981 114.6V66.6H544.981V114.6H548.981ZM546.981 64.6H528.181V68.6H546.981V64.6ZM530.181 66.6V43.2H526.181V66.6H530.181ZM528.181 45.2H530.181V41.2H528.181V45.2ZM530.181 45.2C535.862 45.2 540.551 43.7025 543.962 40.4467L541.2 37.5533C538.745 39.8975 535.167 41.2 530.181 41.2V45.2ZM543.962 40.4467C547.405 37.1608 548.981 32.4997 548.981 26.8H544.981C544.981 31.7669 543.625 35.2392 541.2 37.5533L543.962 40.4467ZM548.981 26.8V18.4H544.981V26.8H548.981ZM546.981 20.4H573.181V16.4H546.981V20.4ZM571.181 18.4V43.2H575.181V18.4H571.181ZM573.181 45.2H598.181V41.2H573.181V45.2ZM596.181 43.2V66.6H600.181V43.2H596.181ZM598.181 64.6H573.181V68.6H598.181V64.6ZM571.181 66.6V113.2H575.181V66.6H571.181ZM571.181 113.2C571.181 117.015 571.816 120.39 573.174 123.256L576.789 121.544C575.746 119.343 575.181 116.585 575.181 113.2H571.181ZM573.211 123.331C574.748 126.251 577.062 128.477 580.087 129.989L581.876 126.411C579.567 125.257 577.881 123.615 576.751 121.469L573.211 123.331ZM580.121 130.006C583.271 131.506 587.122 132.2 591.581 132.2V128.2C587.507 128.2 584.291 127.561 581.841 126.394L580.121 130.006ZM591.581 132.2C592.606 132.2 593.749 132.127 595.002 131.988L594.56 128.012C593.414 128.14 592.423 128.2 591.581 128.2V132.2ZM594.98 131.99C596.32 131.856 597.594 131.722 598.802 131.588L598.36 127.612C597.168 127.745 595.909 127.877 594.582 128.01L594.98 131.99ZM596.581 129.6V152H600.581V129.6H596.581ZM598.298 150.02C596.457 150.283 594.345 150.547 591.96 150.812L592.402 154.788C594.817 154.519 596.972 154.25 598.864 153.98L598.298 150.02ZM591.96 150.812C589.619 151.072 587.494 151.2 585.581 151.2V155.2C587.668 155.2 589.943 155.061 592.402 154.788L591.96 150.812Z" fill="url(#paint0_linear_36_3220)"/>
<defs>
<linearGradient id="paint0_linear_36_3220" x1="302.5" y1="3" x2="302.5" y2="152" gradientUnits="userSpaceOnUse">
<stop stop-color="#414141"/>
<stop offset="1" stop-color="#181818"/>
</linearGradient>
</defs>
</svg>
