<svg width="846" height="896" viewBox="0 0 846 896" fill="none" xmlns="http://www.w3.org/2000/svg">
<path fill-rule="evenodd" clip-rule="evenodd" d="M448 311.523C372.626 311.523 311.523 372.626 311.523 448C311.523 523.374 372.626 584.477 448 584.477C523.374 584.477 584.477 523.374 584.477 448C584.477 372.626 523.374 311.523 448 311.523ZM317.457 448C317.457 375.903 375.903 317.457 448 317.457C520.097 317.457 578.543 375.903 578.543 448C578.543 520.097 520.097 578.543 448 578.543C375.903 578.543 317.457 520.097 317.457 448Z" fill="url(#paint0_linear_40_9923)"/>
<path fill-rule="evenodd" clip-rule="evenodd" d="M448 289.272C360.337 289.272 289.272 360.337 289.272 448C289.272 535.663 360.337 606.729 448 606.729C535.663 606.729 606.729 535.663 606.729 448C606.729 360.337 535.663 289.272 448 289.272ZM295.205 448C295.205 363.614 363.614 295.205 448 295.205C532.386 295.205 600.795 363.614 600.795 448C600.795 532.386 532.386 600.795 448 600.795C363.614 600.795 295.205 532.386 295.205 448Z" fill="url(#paint1_linear_40_9923)"/>
<path fill-rule="evenodd" clip-rule="evenodd" d="M267.02 448C267.02 348.047 348.047 267.02 448 267.02C547.953 267.02 628.98 348.047 628.98 448C628.98 547.953 547.953 628.98 448 628.98C348.047 628.98 267.02 547.953 267.02 448ZM448 272.954C351.325 272.954 272.954 351.325 272.954 448C272.954 544.675 351.325 623.046 448 623.046C544.675 623.046 623.046 544.675 623.046 448C623.046 351.325 544.675 272.954 448 272.954Z" fill="url(#paint2_linear_40_9923)"/>
<path fill-rule="evenodd" clip-rule="evenodd" d="M244.768 448C244.768 335.758 335.758 244.768 448 244.768C560.242 244.768 651.232 335.758 651.232 448C651.232 560.242 560.242 651.232 448 651.232C335.758 651.232 244.768 560.242 244.768 448ZM448 250.702C339.035 250.702 250.702 339.035 250.702 448C250.702 556.965 339.035 645.298 448 645.298C556.965 645.298 645.298 556.965 645.298 448C645.298 339.035 556.965 250.702 448 250.702Z" fill="url(#paint3_linear_40_9923)"/>
<path fill-rule="evenodd" clip-rule="evenodd" d="M222.517 448C222.517 323.469 323.469 222.517 448 222.517C572.531 222.517 673.483 323.469 673.483 448C673.483 572.531 572.531 673.483 448 673.483C323.469 673.483 222.517 572.531 222.517 448ZM448 228.45C326.746 228.45 228.45 326.746 228.45 448C228.45 569.254 326.746 667.55 448 667.55C569.254 667.55 667.55 569.254 667.55 448C667.55 326.746 569.254 228.45 448 228.45Z" fill="url(#paint4_linear_40_9923)"/>
<path fill-rule="evenodd" clip-rule="evenodd" d="M448 200.265C311.18 200.265 200.265 311.18 200.265 448C200.265 584.82 311.18 695.735 448 695.735C584.82 695.735 695.735 584.82 695.735 448C695.735 311.18 584.82 200.265 448 200.265ZM206.199 448C206.199 314.457 314.457 206.199 448 206.199C581.543 206.199 689.801 314.457 689.801 448C689.801 581.543 581.543 689.801 448 689.801C314.457 689.801 206.199 581.543 206.199 448Z" fill="url(#paint5_linear_40_9923)"/>
<path fill-rule="evenodd" clip-rule="evenodd" d="M178.013 448C178.013 298.89 298.89 178.013 448 178.013C597.11 178.013 717.987 298.89 717.987 448C717.987 597.11 597.11 717.987 448 717.987C298.89 717.987 178.013 597.11 178.013 448ZM448 183.947C302.168 183.947 183.947 302.168 183.947 448C183.947 593.832 302.168 712.053 448 712.053C593.832 712.053 712.053 593.832 712.053 448C712.053 302.168 593.832 183.947 448 183.947Z" fill="url(#paint6_linear_40_9923)"/>
<path fill-rule="evenodd" clip-rule="evenodd" d="M448 155.762C286.601 155.762 155.762 286.601 155.762 448C155.762 609.399 286.601 740.238 448 740.238C609.399 740.238 740.238 609.399 740.238 448C740.238 286.601 609.399 155.762 448 155.762ZM161.695 448C161.695 289.878 289.878 161.695 448 161.695C606.122 161.695 734.305 289.878 734.305 448C734.305 606.122 606.122 734.305 448 734.305C289.878 734.305 161.695 606.122 161.695 448Z" fill="url(#paint7_linear_40_9923)"/>
<path fill-rule="evenodd" clip-rule="evenodd" d="M133.51 448C133.51 274.312 274.312 133.51 448 133.51C621.688 133.51 762.49 274.312 762.49 448C762.49 621.688 621.688 762.49 448 762.49C274.312 762.49 133.51 621.688 133.51 448ZM448 139.444C277.589 139.444 139.444 277.589 139.444 448C139.444 618.411 277.589 756.556 448 756.556C618.411 756.556 756.556 618.411 756.556 448C756.556 277.589 618.411 139.444 448 139.444Z" fill="url(#paint8_linear_40_9923)"/>
<path fill-rule="evenodd" clip-rule="evenodd" d="M448 111.258C262.023 111.258 111.258 262.023 111.258 448C111.258 633.977 262.023 784.742 448 784.742C633.977 784.742 784.742 633.977 784.742 448C784.742 262.023 633.977 111.258 448 111.258ZM117.192 448C117.192 265.3 265.3 117.192 448 117.192C630.7 117.192 778.808 265.3 778.808 448C778.808 630.7 630.7 778.808 448 778.808C265.3 778.808 117.192 630.7 117.192 448Z" fill="url(#paint9_linear_40_9923)"/>
<path fill-rule="evenodd" clip-rule="evenodd" d="M89.0066 448C89.0066 249.733 249.733 89.0066 448 89.0066C646.267 89.0066 806.993 249.733 806.993 448C806.993 646.267 646.267 806.993 448 806.993C249.733 806.993 89.0066 646.267 89.0066 448ZM448 94.9404C253.011 94.9404 94.9404 253.011 94.9404 448C94.9404 642.989 253.011 801.06 448 801.06C642.989 801.06 801.06 642.989 801.06 448C801.06 253.011 642.989 94.9404 448 94.9404Z" fill="url(#paint10_linear_40_9923)"/>
<path fill-rule="evenodd" clip-rule="evenodd" d="M448 66.755C237.444 66.755 66.755 237.444 66.755 448C66.755 658.556 237.444 829.245 448 829.245C658.556 829.245 829.245 658.556 829.245 448C829.245 237.444 658.556 66.755 448 66.755ZM72.6887 448C72.6887 240.721 240.721 72.6887 448 72.6887C655.279 72.6887 823.311 240.721 823.311 448C823.311 655.279 655.279 823.311 448 823.311C240.721 823.311 72.6887 655.279 72.6887 448Z" fill="url(#paint11_linear_40_9923)"/>
<path fill-rule="evenodd" clip-rule="evenodd" d="M44.5033 448C44.5033 225.155 225.155 44.5033 448 44.5033C670.845 44.5033 851.497 225.155 851.497 448C851.497 670.845 670.845 851.497 448 851.497C225.155 851.497 44.5033 670.845 44.5033 448ZM448 50.4371C228.432 50.4371 50.4371 228.432 50.4371 448C50.4371 667.568 228.432 845.563 448 845.563C667.568 845.563 845.563 667.568 845.563 448C845.563 228.432 667.568 50.4371 448 50.4371Z" fill="url(#paint12_linear_40_9923)"/>
<path fill-rule="evenodd" clip-rule="evenodd" d="M448 22.2517C212.866 22.2517 22.2517 212.866 22.2517 448C22.2517 683.134 212.866 873.748 448 873.748C683.134 873.748 873.748 683.134 873.748 448C873.748 212.866 683.134 22.2517 448 22.2517ZM28.1854 448C28.1854 216.143 216.143 28.1854 448 28.1854C679.857 28.1854 867.815 216.143 867.815 448C867.815 679.857 679.857 867.815 448 867.815C216.143 867.815 28.1854 679.857 28.1854 448Z" fill="url(#paint13_linear_40_9923)"/>
<path fill-rule="evenodd" clip-rule="evenodd" d="M0 448C0 200.576 200.576 0 448 0C695.424 0 896 200.576 896 448C896 695.424 695.424 896 448 896C200.576 896 0 695.424 0 448ZM448 5.93377C203.854 5.93377 5.93377 203.854 5.93377 448C5.93377 692.146 203.854 890.066 448 890.066C692.146 890.066 890.066 692.146 890.066 448C890.066 203.854 692.146 5.93377 448 5.93377Z" fill="url(#paint14_linear_40_9923)"/>
<defs>
<linearGradient id="paint0_linear_40_9923" x1="448" y1="0" x2="736.157" y2="725.892" gradientUnits="userSpaceOnUse">
<stop stop-color="#343434"/>
<stop offset="1" stop-color="#343434" stop-opacity="0"/>
</linearGradient>
<linearGradient id="paint1_linear_40_9923" x1="448" y1="0" x2="736.157" y2="725.892" gradientUnits="userSpaceOnUse">
<stop stop-color="#343434"/>
<stop offset="1" stop-color="#343434" stop-opacity="0"/>
</linearGradient>
<linearGradient id="paint2_linear_40_9923" x1="448" y1="0" x2="736.157" y2="725.892" gradientUnits="userSpaceOnUse">
<stop stop-color="#343434"/>
<stop offset="1" stop-color="#343434" stop-opacity="0"/>
</linearGradient>
<linearGradient id="paint3_linear_40_9923" x1="448" y1="0" x2="736.157" y2="725.892" gradientUnits="userSpaceOnUse">
<stop stop-color="#343434"/>
<stop offset="1" stop-color="#343434" stop-opacity="0"/>
</linearGradient>
<linearGradient id="paint4_linear_40_9923" x1="448" y1="0" x2="736.157" y2="725.892" gradientUnits="userSpaceOnUse">
<stop stop-color="#343434"/>
<stop offset="1" stop-color="#343434" stop-opacity="0"/>
</linearGradient>
<linearGradient id="paint5_linear_40_9923" x1="448" y1="0" x2="736.157" y2="725.892" gradientUnits="userSpaceOnUse">
<stop stop-color="#343434"/>
<stop offset="1" stop-color="#343434" stop-opacity="0"/>
</linearGradient>
<linearGradient id="paint6_linear_40_9923" x1="448" y1="0" x2="736.157" y2="725.892" gradientUnits="userSpaceOnUse">
<stop stop-color="#343434"/>
<stop offset="1" stop-color="#343434" stop-opacity="0"/>
</linearGradient>
<linearGradient id="paint7_linear_40_9923" x1="448" y1="0" x2="736.157" y2="725.892" gradientUnits="userSpaceOnUse">
<stop stop-color="#343434"/>
<stop offset="1" stop-color="#343434" stop-opacity="0"/>
</linearGradient>
<linearGradient id="paint8_linear_40_9923" x1="448" y1="0" x2="736.157" y2="725.892" gradientUnits="userSpaceOnUse">
<stop stop-color="#343434"/>
<stop offset="1" stop-color="#343434" stop-opacity="0"/>
</linearGradient>
<linearGradient id="paint9_linear_40_9923" x1="448" y1="0" x2="736.157" y2="725.892" gradientUnits="userSpaceOnUse">
<stop stop-color="#343434"/>
<stop offset="1" stop-color="#343434" stop-opacity="0"/>
</linearGradient>
<linearGradient id="paint10_linear_40_9923" x1="448" y1="0" x2="736.157" y2="725.892" gradientUnits="userSpaceOnUse">
<stop stop-color="#343434"/>
<stop offset="1" stop-color="#343434" stop-opacity="0"/>
</linearGradient>
<linearGradient id="paint11_linear_40_9923" x1="448" y1="0" x2="736.157" y2="725.892" gradientUnits="userSpaceOnUse">
<stop stop-color="#343434"/>
<stop offset="1" stop-color="#343434" stop-opacity="0"/>
</linearGradient>
<linearGradient id="paint12_linear_40_9923" x1="448" y1="0" x2="736.157" y2="725.892" gradientUnits="userSpaceOnUse">
<stop stop-color="#343434"/>
<stop offset="1" stop-color="#343434" stop-opacity="0"/>
</linearGradient>
<linearGradient id="paint13_linear_40_9923" x1="448" y1="0" x2="736.157" y2="725.892" gradientUnits="userSpaceOnUse">
<stop stop-color="#343434"/>
<stop offset="1" stop-color="#343434" stop-opacity="0"/>
</linearGradient>
<linearGradient id="paint14_linear_40_9923" x1="448" y1="0" x2="736.157" y2="725.892" gradientUnits="userSpaceOnUse">
<stop stop-color="#343434"/>
<stop offset="1" stop-color="#343434" stop-opacity="0"/>
</linearGradient>
</defs>
</svg>
