<svg width="280" height="23" viewBox="0 0 280 23" fill="none" xmlns="http://www.w3.org/2000/svg">
<path d="M19.957 8.27344C19.957 8.67448 19.9297 9.15755 19.875 9.72266C19.8385 10.2878 19.7656 10.862 19.6562 11.4453C19.5651 12.0286 19.4284 12.5755 19.2461 13.0859C19.0638 13.5964 18.8359 13.9974 18.5625 14.2891C18.4531 14.4167 18.0977 14.5443 17.4961 14.6719C16.9128 14.7812 16.2018 14.8997 15.3633 15.0273C14.543 15.1367 13.6589 15.2461 12.7109 15.3555C11.763 15.4648 10.8607 15.5651 10.0039 15.6562C9.16536 15.7292 8.4362 15.793 7.81641 15.8477C7.19661 15.9023 6.80469 15.9297 6.64062 15.9297L6.42188 21.6172C5.85677 21.6536 5.30078 21.6628 4.75391 21.6445C4.20703 21.6081 3.65104 21.5898 3.08594 21.5898C2.72135 21.5898 2.35677 21.599 1.99219 21.6172C1.6276 21.6354 1.26302 21.6628 0.898438 21.6992C0.898438 19.9857 0.898438 18.2904 0.898438 16.6133C0.898438 14.9362 0.861979 13.2409 0.789062 11.5273C0.734375 9.97786 0.679688 8.4375 0.625 6.90625C0.588542 5.375 0.552083 3.83464 0.515625 2.28516C2.39323 2.15755 4.27995 2.0026 6.17578 1.82031C8.08984 1.61979 9.99479 1.51953 11.8906 1.51953C12.2188 1.51953 12.7383 1.55599 13.4492 1.62891C14.1602 1.68359 14.9076 1.78385 15.6914 1.92969C16.4753 2.05729 17.1953 2.22135 17.8516 2.42188C18.526 2.6224 18.9727 2.85026 19.1914 3.10547C19.3372 3.26953 19.4557 3.58854 19.5469 4.0625C19.6562 4.53646 19.7383 5.04688 19.793 5.59375C19.8477 6.1224 19.8841 6.64193 19.9023 7.15234C19.9388 7.66276 19.957 8.03646 19.957 8.27344ZM12.3008 8.08203C12.3008 7.91797 12.2917 7.70833 12.2734 7.45312C12.2552 7.19792 12.2188 6.95182 12.1641 6.71484C12.1276 6.45964 12.0638 6.23177 11.9727 6.03125C11.8815 5.8125 11.763 5.65755 11.6172 5.56641C11.526 5.51172 11.3802 5.46615 11.1797 5.42969C10.9792 5.39323 10.7695 5.36589 10.5508 5.34766C10.332 5.32943 10.1224 5.32031 9.92188 5.32031C9.72135 5.30208 9.57552 5.29297 9.48438 5.29297C8.8099 5.29297 8.13542 5.32943 7.46094 5.40234C6.78646 5.47526 6.10286 5.56641 5.41016 5.67578C5.46484 6.22266 5.49219 6.76042 5.49219 7.28906C5.51042 7.81771 5.51953 8.34635 5.51953 8.875C5.51953 9.73177 5.54688 10.5977 5.60156 11.4727C5.83854 11.4727 6.2487 11.4635 6.83203 11.4453C7.41536 11.4089 8.02604 11.3633 8.66406 11.3086C9.30208 11.2357 9.90365 11.1445 10.4688 11.0352C11.0339 10.9076 11.4167 10.7435 11.6172 10.543C11.9453 10.2331 12.1367 9.85938 12.1914 9.42188C12.2643 8.96615 12.3008 8.51953 12.3008 8.08203ZM27.5312 3.70703C27.5312 4.07161 27.4492 4.41797 27.2852 4.74609C27.1393 5.05599 26.9297 5.32943 26.6562 5.56641C26.401 5.80339 26.1094 5.99479 25.7812 6.14062C25.4531 6.26823 25.125 6.33203 24.7969 6.33203C24.4323 6.33203 24.0859 6.25 23.7578 6.08594C23.4479 5.92188 23.1745 5.71224 22.9375 5.45703C22.7005 5.20182 22.5182 4.91016 22.3906 4.58203C22.263 4.23568 22.1992 3.88932 22.1992 3.54297C22.1992 3.19661 22.263 2.8776 22.3906 2.58594C22.5365 2.27604 22.7188 2.01172 22.9375 1.79297C23.1745 1.57422 23.4388 1.40104 23.7305 1.27344C24.0404 1.14583 24.3685 1.08203 24.7148 1.08203C25.0612 1.08203 25.3984 1.15495 25.7266 1.30078C26.0729 1.42839 26.3737 1.61979 26.6289 1.875C26.9023 2.11198 27.1211 2.39453 27.2852 2.72266C27.4492 3.03255 27.5312 3.36068 27.5312 3.70703ZM28.6523 8.35547C28.5612 9.32161 28.4883 10.2786 28.4336 11.2266C28.3789 12.1745 28.3242 13.1224 28.2695 14.0703C28.1966 15.1823 28.069 16.2852 27.8867 17.3789C27.7227 18.4727 27.5312 19.5664 27.3125 20.6602L23.1289 21.0977C23.1289 20.5143 23.1289 19.9401 23.1289 19.375C23.1471 18.8099 23.1562 18.2357 23.1562 17.6523C23.1562 16.1576 23.1289 14.6628 23.0742 13.168C23.0195 11.6732 22.9648 10.1784 22.9102 8.68359C23.8763 8.64714 24.8242 8.59245 25.7539 8.51953C26.7018 8.44661 27.668 8.39193 28.6523 8.35547ZM49.3789 7.58984C49.3789 8.42839 49.2695 9.23958 49.0508 10.0234C48.9232 10.0417 48.5404 10.069 47.9023 10.1055C47.2826 10.1237 46.5352 10.1602 45.6602 10.2148C44.8034 10.2513 43.8737 10.306 42.8711 10.3789C41.8867 10.4336 40.9661 10.4974 40.1094 10.5703C39.2708 10.6432 38.5508 10.7253 37.9492 10.8164C37.3659 10.8893 37.0378 10.9622 36.9648 11.0352C36.6732 11.2904 36.4544 11.6003 36.3086 11.9648C36.1628 12.3294 36.0898 12.694 36.0898 13.0586C36.0898 13.2773 36.1081 13.4505 36.1445 13.5781C36.1992 13.6875 36.2812 13.8151 36.3906 13.9609C36.4453 14.0156 36.6367 14.0612 36.9648 14.0977C37.293 14.1341 37.6576 14.1615 38.0586 14.1797C38.4596 14.1979 38.8333 14.2161 39.1797 14.2344C39.526 14.2344 39.7266 14.2344 39.7812 14.2344C41.0938 14.2344 42.4062 14.207 43.7188 14.1523C45.0312 14.0977 46.3438 14.0247 47.6562 13.9336L47.875 18.6367C46.0521 18.7826 44.2201 18.9284 42.3789 19.0742C40.556 19.2018 38.724 19.2656 36.8828 19.2656C36.7917 19.2656 36.6549 19.2656 36.4727 19.2656C36.3086 19.2656 36.1263 19.2656 35.9258 19.2656C35.7253 19.2474 35.5339 19.2292 35.3516 19.2109C35.1693 19.1927 35.0417 19.1745 34.9688 19.1562C34.5859 19.0469 34.2031 18.9284 33.8203 18.8008C33.4557 18.6549 33.1094 18.4818 32.7812 18.2812C32.4531 18.0625 32.1615 17.8073 31.9062 17.5156C31.6693 17.224 31.4961 16.8685 31.3867 16.4492C31.3138 16.1758 31.25 15.8203 31.1953 15.3828C31.1589 14.9271 31.1315 14.4622 31.1133 13.9883C31.0951 13.5143 31.0768 13.0495 31.0586 12.5938C31.0586 12.138 31.0586 11.7552 31.0586 11.4453C31.0586 10.7344 31.0677 10.069 31.0859 9.44922C31.1042 8.82943 31.2044 8.26432 31.3867 7.75391C31.569 7.22526 31.8607 6.76042 32.2617 6.35938C32.681 5.9401 33.2734 5.57552 34.0391 5.26562C34.3854 5.11979 34.9049 5.01042 35.5977 4.9375C36.2904 4.84635 37.0104 4.78255 37.7578 4.74609C38.5234 4.69141 39.2526 4.65495 39.9453 4.63672C40.638 4.61849 41.1758 4.60938 41.5586 4.60938C42.8346 4.60938 44.1016 4.63672 45.3594 4.69141C46.6354 4.74609 47.9115 4.81901 49.1875 4.91016C49.2422 5.36589 49.2878 5.82161 49.3242 6.27734C49.3607 6.71484 49.3789 7.15234 49.3789 7.58984ZM69.9414 6.93359L62.9141 12.0195C62.9688 12.2383 63.0781 12.5938 63.2422 13.0859C63.4062 13.5599 63.5885 14.0612 63.7891 14.5898C63.9896 15.1003 64.1992 15.5833 64.418 16.0391C64.6549 16.4766 64.8737 16.7591 65.0742 16.8867C65.2018 16.9779 65.3659 17.0508 65.5664 17.1055C65.7669 17.1602 65.9674 17.2057 66.168 17.2422C66.3867 17.2786 66.5964 17.306 66.7969 17.3242C67.0156 17.3242 67.1979 17.3242 67.3438 17.3242C67.599 17.3242 67.8633 17.3151 68.1367 17.2969C68.4102 17.2786 68.6745 17.2513 68.9297 17.2148C68.8932 17.4518 68.8659 17.6979 68.8477 17.9531C68.8294 18.1901 68.8203 18.4362 68.8203 18.6914C68.8203 19.1289 68.8294 19.5664 68.8477 20.0039C68.8659 20.4414 68.875 20.8698 68.875 21.2891C68.7474 21.3073 68.5195 21.3346 68.1914 21.3711C67.8815 21.3893 67.5169 21.4167 67.0977 21.4531C66.6966 21.4714 66.2682 21.4987 65.8125 21.5352C65.3568 21.5716 64.9284 21.6081 64.5273 21.6445C64.1445 21.6628 63.8073 21.6719 63.5156 21.6719C63.2422 21.6719 63.069 21.6536 62.9961 21.6172C62.6862 21.4714 62.3854 21.3164 62.0938 21.1523C61.8021 20.9883 61.556 20.7604 61.3555 20.4688C61.2643 20.3411 61.1094 19.9948 60.8906 19.4297C60.6901 18.8646 60.4714 18.2448 60.2344 17.5703C60.0156 16.8958 59.806 16.2669 59.6055 15.6836C59.4232 15.1003 59.3047 14.7266 59.25 14.5625L56.625 16.2578V21.0156L51.2109 21.4805C51.3203 18.9284 51.4388 16.3945 51.5664 13.8789C51.694 11.3451 51.7578 8.79297 51.7578 6.22266C51.7578 5.4388 51.7487 4.66406 51.7305 3.89844C51.7305 3.13281 51.7214 2.34896 51.7031 1.54688C52.4505 1.69271 53.1888 1.78385 53.918 1.82031C54.6654 1.85677 55.4128 1.91146 56.1602 1.98438V12.2109C57.582 11.3359 58.9674 10.4427 60.3164 9.53125C61.6836 8.61979 63.0052 7.61719 64.2812 6.52344C65.2474 6.63281 66.1862 6.71484 67.0977 6.76953C68.0273 6.82422 68.9753 6.87891 69.9414 6.93359ZM89.6836 15.1914C89.6836 15.8477 89.5833 16.5404 89.3828 17.2695C89.1823 17.9805 88.8906 18.6549 88.5078 19.293C88.125 19.9128 87.651 20.4596 87.0859 20.9336C86.5391 21.3893 85.9193 21.6901 85.2266 21.8359C84.9531 21.8906 84.625 21.9362 84.2422 21.9727C83.8776 22.0091 83.4948 22.0365 83.0938 22.0547C82.6927 22.0729 82.2917 22.0911 81.8906 22.1094C81.5078 22.1276 81.1797 22.1367 80.9062 22.1367C79.3385 22.2096 77.7708 22.2461 76.2031 22.2461C74.6354 22.2643 73.0586 22.2734 71.4727 22.2734C71.3997 21.526 71.3268 20.7878 71.2539 20.0586C71.1992 19.3294 71.1172 18.582 71.0078 17.8164C72.2656 17.7617 73.5143 17.707 74.7539 17.6523C76.0117 17.5794 77.2695 17.4974 78.5273 17.4062C78.8008 17.388 79.1016 17.3789 79.4297 17.3789C79.776 17.3789 80.1224 17.3698 80.4688 17.3516C80.8333 17.3333 81.1797 17.3151 81.5078 17.2969C81.8542 17.2604 82.1549 17.2148 82.4102 17.1602C82.5195 17.1419 82.6471 17.1146 82.793 17.0781C82.957 17.0234 83.1029 16.9596 83.2305 16.8867C83.3581 16.7956 83.4674 16.6953 83.5586 16.5859C83.6497 16.4766 83.6953 16.3398 83.6953 16.1758C83.6953 15.793 83.6497 15.3737 83.5586 14.918C83.4857 14.444 83.431 14.0247 83.3945 13.6602C82.0273 13.7878 80.651 13.9154 79.2656 14.043C77.8984 14.1523 76.5221 14.207 75.1367 14.207C74.1888 14.207 73.4323 13.9427 72.8672 13.4141C72.3021 12.8672 71.8919 12.1562 71.6367 11.2812C71.582 11.0807 71.5273 10.8438 71.4727 10.5703C71.4362 10.2786 71.3997 9.98698 71.3633 9.69531C71.3451 9.38542 71.3268 9.08464 71.3086 8.79297C71.2904 8.5013 71.2721 8.25521 71.2539 8.05469C71.1628 6.85156 71.0898 5.66667 71.0352 4.5C70.9987 3.33333 70.9622 2.14844 70.9258 0.945312C71.8008 1.03646 72.6758 1.11849 73.5508 1.19141C74.444 1.26432 75.3281 1.32812 76.2031 1.38281C76.2031 2.23958 76.2214 3.15104 76.2578 4.11719C76.3125 5.0651 76.431 5.94922 76.6133 6.76953C76.7044 7.20703 76.8776 7.58984 77.1328 7.91797C77.388 8.22786 77.6888 8.49219 78.0352 8.71094C78.3997 8.91146 78.7826 9.06641 79.1836 9.17578C79.6029 9.26693 80.0221 9.3125 80.4414 9.3125C80.9336 9.3125 81.4258 9.26693 81.918 9.17578C82.4102 9.06641 82.8841 8.9388 83.3398 8.79297C83.2669 7.42578 83.2031 6.07682 83.1484 4.74609C83.112 3.41536 83.0299 2.07552 82.9023 0.726562C83.4492 0.708333 83.9961 0.690104 84.543 0.671875C85.0898 0.635417 85.6367 0.617188 86.1836 0.617188C87.0404 0.617188 87.9062 0.699219 88.7812 0.863281C88.7812 1.64714 88.7904 2.43099 88.8086 3.21484C88.8451 3.9987 88.8815 4.78255 88.918 5.56641C88.9544 5.93099 88.9818 6.30469 89 6.6875C89.0365 7.05208 89.0638 7.41667 89.082 7.78125C89.1549 9.02083 89.2734 10.2604 89.4375 11.5C89.6016 12.7214 89.6836 13.9518 89.6836 15.1914ZM112.926 11.1719C112.926 11.3177 112.926 11.4635 112.926 11.6094C112.926 11.737 112.917 11.8737 112.898 12.0195C112.88 12.2747 112.835 12.694 112.762 13.2773C112.689 13.8607 112.589 14.4714 112.461 15.1094C112.333 15.7292 112.178 16.3034 111.996 16.832C111.814 17.3607 111.613 17.6979 111.395 17.8438C111.285 17.9167 110.911 17.9805 110.273 18.0352C109.654 18.0898 108.888 18.1445 107.977 18.1992C107.083 18.2539 106.108 18.2995 105.051 18.3359C103.993 18.3724 102.982 18.4089 102.016 18.4453C101.068 18.4635 100.229 18.4818 99.5 18.5C98.7891 18.5182 98.3151 18.5273 98.0781 18.5273C97.9688 18.5273 97.7773 18.5273 97.5039 18.5273C97.2487 18.5273 96.9753 18.5273 96.6836 18.5273C96.3919 18.5091 96.1185 18.4909 95.8633 18.4727C95.6081 18.4544 95.4258 18.4271 95.3164 18.3906C95.0612 18.2995 94.806 18.1536 94.5508 17.9531C94.2956 17.7344 94.0586 17.4974 93.8398 17.2422C93.6211 16.9688 93.4206 16.6953 93.2383 16.4219C93.0742 16.1302 92.9557 15.8568 92.8828 15.6016C92.8281 15.401 92.7826 15.1003 92.7461 14.6992C92.7096 14.2799 92.6823 13.8516 92.6641 13.4141C92.6458 12.9583 92.6276 12.5208 92.6094 12.1016C92.6094 11.6823 92.6094 11.3633 92.6094 11.1445C92.6094 10.7982 92.6185 10.3242 92.6367 9.72266C92.6549 9.10286 92.7096 8.47396 92.8008 7.83594C92.8919 7.19792 93.0195 6.60547 93.1836 6.05859C93.3659 5.49349 93.6211 5.10156 93.9492 4.88281C94.0951 4.79167 94.3685 4.70964 94.7695 4.63672C95.1706 4.5638 95.6445 4.5 96.1914 4.44531C96.7383 4.39062 97.3216 4.35417 97.9414 4.33594C98.5612 4.29948 99.1628 4.28125 99.7461 4.28125C100.348 4.26302 100.904 4.25391 101.414 4.25391C101.924 4.25391 102.335 4.26302 102.645 4.28125C102.918 4.29948 103.31 4.31771 103.82 4.33594C104.331 4.33594 104.896 4.34505 105.516 4.36328C106.154 4.38151 106.81 4.41797 107.484 4.47266C108.159 4.50911 108.788 4.5638 109.371 4.63672C109.954 4.70964 110.465 4.8099 110.902 4.9375C111.358 5.04688 111.659 5.18359 111.805 5.34766C112.042 5.60286 112.233 5.98568 112.379 6.49609C112.525 7.00651 112.634 7.55339 112.707 8.13672C112.798 8.70182 112.853 9.26693 112.871 9.83203C112.908 10.3789 112.926 10.8255 112.926 11.1719ZM107.129 11.7461C107.129 11.5273 107.12 11.2721 107.102 10.9805C107.083 10.6888 107.056 10.3971 107.02 10.1055C106.983 9.79557 106.928 9.50391 106.855 9.23047C106.783 8.9388 106.691 8.70182 106.582 8.51953C106.436 8.28255 106.154 8.10026 105.734 7.97266C105.315 7.84505 104.85 7.75391 104.34 7.69922C103.848 7.6263 103.355 7.58073 102.863 7.5625C102.389 7.54427 102.034 7.53516 101.797 7.53516C101.669 7.53516 101.441 7.54427 101.113 7.5625C100.785 7.5625 100.439 7.57161 100.074 7.58984C99.7279 7.60807 99.3997 7.64453 99.0898 7.69922C98.7799 7.73568 98.5794 7.78125 98.4883 7.83594C98.3242 7.94531 98.1966 8.11849 98.1055 8.35547C98.0143 8.57422 97.9414 8.82031 97.8867 9.09375C97.8503 9.36719 97.8229 9.64062 97.8047 9.91406C97.8047 10.1693 97.8047 10.3789 97.8047 10.543C97.8047 10.707 97.8138 11.0078 97.832 11.4453C97.8685 11.8646 97.9049 12.3203 97.9414 12.8125C97.9961 13.2865 98.0599 13.724 98.1328 14.125C98.2057 14.526 98.2969 14.7812 98.4062 14.8906C98.5339 15.0365 98.7708 15.1549 99.1172 15.2461C99.4818 15.3372 99.8646 15.4193 100.266 15.4922C100.685 15.5469 101.086 15.5924 101.469 15.6289C101.852 15.6471 102.125 15.6562 102.289 15.6562C102.581 15.6562 102.927 15.6471 103.328 15.6289C103.729 15.6107 104.13 15.5651 104.531 15.4922C104.951 15.4193 105.342 15.319 105.707 15.1914C106.072 15.0638 106.363 14.8906 106.582 14.6719C106.71 14.5443 106.81 14.3529 106.883 14.0977C106.956 13.8424 107.01 13.569 107.047 13.2773C107.083 12.9857 107.102 12.7031 107.102 12.4297C107.12 12.138 107.129 11.9102 107.129 11.7461ZM134.199 20.6055L129.578 20.7969L129.25 18.0352C128.904 18.5091 128.484 18.9102 127.992 19.2383C127.518 19.5664 126.999 19.8307 126.434 20.0312C125.887 20.2318 125.312 20.3776 124.711 20.4688C124.128 20.5417 123.553 20.5781 122.988 20.5781C122.551 20.5781 122.004 20.5417 121.348 20.4688C120.71 20.3958 120.053 20.2956 119.379 20.168C118.723 20.0221 118.112 19.8398 117.547 19.6211C116.982 19.4023 116.572 19.1471 116.316 18.8555C116.116 18.6367 115.961 18.2904 115.852 17.8164C115.76 17.3242 115.697 16.8047 115.66 16.2578C115.624 15.7109 115.605 15.1823 115.605 14.6719C115.605 14.1615 115.605 13.7513 115.605 13.4414C115.605 12.0742 115.66 10.7253 115.77 9.39453C115.879 8.0638 116.034 6.74219 116.234 5.42969C116.745 5.375 117.292 5.34766 117.875 5.34766C118.349 5.34766 118.823 5.38411 119.297 5.45703C119.771 5.51172 120.245 5.58464 120.719 5.67578C120.719 5.76693 120.728 6.03125 120.746 6.46875C120.764 6.90625 120.783 7.42578 120.801 8.02734C120.837 8.62891 120.874 9.27604 120.91 9.96875C120.947 10.6432 120.983 11.2721 121.02 11.8555C121.074 12.4388 121.129 12.9401 121.184 13.3594C121.257 13.7604 121.329 13.9792 121.402 14.0156C121.676 14.1797 121.977 14.2708 122.305 14.2891C122.633 14.3073 122.952 14.3164 123.262 14.3164C123.48 14.3164 123.818 14.3073 124.273 14.2891C124.747 14.2526 125.23 14.207 125.723 14.1523C126.215 14.0794 126.671 13.9974 127.09 13.9062C127.509 13.7969 127.792 13.6693 127.938 13.5234C127.992 13.4688 128.029 13.2956 128.047 13.0039C128.083 12.7122 128.102 12.3932 128.102 12.0469C128.12 11.7005 128.129 11.3815 128.129 11.0898C128.147 10.7799 128.156 10.5977 128.156 10.543C128.156 9.72266 128.138 8.91146 128.102 8.10938C128.065 7.30729 128.029 6.49609 127.992 5.67578L133.297 5.42969C133.406 6.70573 133.507 7.98177 133.598 9.25781C133.689 10.5156 133.807 11.7826 133.953 13.0586C134.008 13.4779 134.035 13.9062 134.035 14.3438C134.053 14.7812 134.072 15.2188 134.09 15.6562C134.126 16.4766 134.145 17.2969 134.145 18.1172C134.163 18.9375 134.181 19.7669 134.199 20.6055ZM152.984 10.4609V11.0898L147.707 11.3359C147.762 11.099 147.789 10.8255 147.789 10.5156C147.789 10.0599 147.725 9.76823 147.598 9.64062C147.47 9.49479 147.188 9.42188 146.75 9.42188C146.13 9.42188 145.447 9.53125 144.699 9.75C143.952 9.96875 143.296 10.1784 142.73 10.3789C142.639 11.181 142.566 11.9831 142.512 12.7852C142.457 13.5872 142.43 14.3893 142.43 15.1914C142.43 16.0846 142.43 16.9779 142.43 17.8711C142.448 18.7461 142.466 19.6302 142.484 20.5234L137.781 20.8242C137.69 19.6576 137.599 18.5 137.508 17.3516C137.417 16.1849 137.335 15.0182 137.262 13.8516C137.171 12.3021 137.052 10.7617 136.906 9.23047C136.76 7.68099 136.615 6.1224 136.469 4.55469C137.508 4.6276 138.538 4.73698 139.559 4.88281C140.598 5.01042 141.637 5.17448 142.676 5.375L142.539 7.67188C143.086 7.23438 143.605 6.86068 144.098 6.55078C144.608 6.22266 145.118 5.94922 145.629 5.73047C146.158 5.51172 146.714 5.35677 147.297 5.26562C147.88 5.15625 148.527 5.10156 149.238 5.10156C149.712 5.10156 150.204 5.15625 150.715 5.26562C151.225 5.35677 151.663 5.58464 152.027 5.94922C152.21 6.14974 152.365 6.45052 152.492 6.85156C152.62 7.2526 152.72 7.68099 152.793 8.13672C152.866 8.57422 152.911 9.01172 152.93 9.44922C152.966 9.86849 152.984 10.2057 152.984 10.4609ZM175.652 17.1875C175.652 18.0625 175.443 18.7734 175.023 19.3203C174.604 19.849 174.012 20.2773 173.246 20.6055C172.608 20.8789 171.806 21.0977 170.84 21.2617C169.874 21.4076 168.871 21.5169 167.832 21.5898C166.793 21.6445 165.772 21.681 164.77 21.6992C163.767 21.7174 162.928 21.7266 162.254 21.7266C161.105 21.7266 159.966 21.7083 158.836 21.6719C157.724 21.6354 156.594 21.5807 155.445 21.5078C155.5 19.6484 155.445 17.8073 155.281 15.9844C156.648 16.0208 158.007 16.0573 159.355 16.0938C160.723 16.112 162.09 16.1393 163.457 16.1758C163.986 16.194 164.514 16.2122 165.043 16.2305C165.59 16.2487 166.137 16.2578 166.684 16.2578C166.775 16.2578 166.911 16.2578 167.094 16.2578C167.276 16.2578 167.467 16.2487 167.668 16.2305C167.868 16.2122 168.051 16.1849 168.215 16.1484C168.397 16.112 168.534 16.0573 168.625 15.9844C168.698 15.9115 168.743 15.8112 168.762 15.6836C168.78 15.5378 168.789 15.4102 168.789 15.3008C168.789 15.1003 168.762 14.8633 168.707 14.5898C168.652 14.2982 168.57 14.0612 168.461 13.8789C168.443 13.8607 168.379 13.8424 168.27 13.8242C168.178 13.806 168.069 13.7969 167.941 13.7969C167.814 13.7786 167.695 13.7695 167.586 13.7695C167.477 13.7513 167.413 13.7422 167.395 13.7422C166.228 13.651 165.061 13.5872 163.895 13.5508C162.746 13.5143 161.589 13.4505 160.422 13.3594C159.893 13.3047 159.346 13.25 158.781 13.1953C158.234 13.1406 157.724 13.0404 157.25 12.8945C156.794 12.7669 156.402 12.4844 156.074 12.0469C155.764 11.5911 155.509 11.0807 155.309 10.5156C155.126 9.93229 154.99 9.34896 154.898 8.76562C154.826 8.18229 154.789 7.6901 154.789 7.28906C154.789 6.63281 154.853 6.01302 154.98 5.42969C155.108 4.82812 155.309 4.27214 155.582 3.76172C155.874 3.2513 156.238 2.80469 156.676 2.42188C157.113 2.02083 157.651 1.69271 158.289 1.4375C159.383 1.01823 160.549 0.726562 161.789 0.5625C163.047 0.398438 164.25 0.316406 165.398 0.316406C166.747 0.316406 168.078 0.398438 169.391 0.5625C170.703 0.726562 172.016 0.936198 173.328 1.19141C173.31 1.72005 173.292 2.2487 173.273 2.77734C173.273 3.28776 173.273 3.80729 173.273 4.33594C173.273 4.86458 173.301 5.40234 173.355 5.94922C173.41 6.47786 173.465 7.00651 173.52 7.53516C171.788 7.57161 170.056 7.60807 168.324 7.64453C166.611 7.66276 164.879 7.70833 163.129 7.78125C162.91 7.78125 162.609 7.79036 162.227 7.80859C161.862 7.82682 161.507 7.85417 161.16 7.89062C160.814 7.90885 160.513 7.92708 160.258 7.94531C160.003 7.96354 159.875 7.97266 159.875 7.97266C159.784 8.17318 159.729 8.38281 159.711 8.60156C159.693 8.80208 159.684 9.01172 159.684 9.23047C159.684 9.33984 159.684 9.47656 159.684 9.64062C159.702 9.80469 159.747 9.93229 159.82 10.0234C159.839 10.0417 159.993 10.069 160.285 10.1055C160.577 10.1419 160.896 10.1784 161.242 10.2148C161.607 10.2513 161.944 10.2878 162.254 10.3242C162.582 10.3607 162.783 10.3789 162.855 10.3789C163.457 10.4336 164.159 10.4974 164.961 10.5703C165.781 10.6432 166.611 10.7253 167.449 10.8164C168.306 10.9076 169.126 11.026 169.91 11.1719C170.694 11.2995 171.378 11.4544 171.961 11.6367C172.49 11.819 172.973 12.1107 173.41 12.5117C173.866 12.8945 174.258 13.3503 174.586 13.8789C174.914 14.3893 175.169 14.9362 175.352 15.5195C175.552 16.0846 175.652 16.6406 175.652 17.1875ZM183.719 0.972656C183.573 2.74089 183.427 4.5 183.281 6.25C183.154 8 183.044 9.75911 182.953 11.5273C182.862 13.1315 182.762 14.7266 182.652 16.3125C182.561 17.8802 182.47 19.4661 182.379 21.0703L178.195 21.2891C178.195 19.6302 178.195 17.9896 178.195 16.3672C178.214 14.7266 178.204 13.0768 178.168 11.418C178.132 9.75911 178.059 8.11849 177.949 6.49609C177.84 4.85547 177.73 3.20573 177.621 1.54688L183.719 0.972656ZM190.883 3.70703C190.883 4.07161 190.801 4.41797 190.637 4.74609C190.491 5.05599 190.281 5.32943 190.008 5.56641C189.753 5.80339 189.461 5.99479 189.133 6.14062C188.805 6.26823 188.477 6.33203 188.148 6.33203C187.784 6.33203 187.438 6.25 187.109 6.08594C186.799 5.92188 186.526 5.71224 186.289 5.45703C186.052 5.20182 185.87 4.91016 185.742 4.58203C185.615 4.23568 185.551 3.88932 185.551 3.54297C185.551 3.19661 185.615 2.8776 185.742 2.58594C185.888 2.27604 186.07 2.01172 186.289 1.79297C186.526 1.57422 186.79 1.40104 187.082 1.27344C187.392 1.14583 187.72 1.08203 188.066 1.08203C188.413 1.08203 188.75 1.15495 189.078 1.30078C189.424 1.42839 189.725 1.61979 189.98 1.875C190.254 2.11198 190.473 2.39453 190.637 2.72266C190.801 3.03255 190.883 3.36068 190.883 3.70703ZM192.004 8.35547C191.913 9.32161 191.84 10.2786 191.785 11.2266C191.73 12.1745 191.676 13.1224 191.621 14.0703C191.548 15.1823 191.421 16.2852 191.238 17.3789C191.074 18.4727 190.883 19.5664 190.664 20.6602L186.48 21.0977C186.48 20.5143 186.48 19.9401 186.48 19.375C186.499 18.8099 186.508 18.2357 186.508 17.6523C186.508 16.1576 186.48 14.6628 186.426 13.168C186.371 11.6732 186.316 10.1784 186.262 8.68359C187.228 8.64714 188.176 8.59245 189.105 8.51953C190.053 8.44661 191.02 8.39193 192.004 8.35547ZM220.934 15.082C220.934 15.8477 220.915 16.6042 220.879 17.3516C220.861 18.0807 220.815 18.819 220.742 19.5664C219.977 19.6029 219.238 19.6484 218.527 19.7031C217.835 19.7396 217.105 19.8307 216.34 19.9766C216.559 18.6641 216.668 17.3424 216.668 16.0117C216.668 15.7747 216.65 15.3737 216.613 14.8086C216.577 14.2253 216.522 13.6237 216.449 13.0039C216.395 12.3659 216.312 11.7826 216.203 11.2539C216.112 10.7253 216.003 10.3789 215.875 10.2148C215.784 10.1055 215.647 10.0234 215.465 9.96875C215.283 9.91406 215.091 9.8776 214.891 9.85938C214.69 9.82292 214.49 9.80469 214.289 9.80469C214.089 9.78646 213.924 9.77734 213.797 9.77734C213.578 9.77734 213.314 9.78646 213.004 9.80469C212.712 9.82292 212.411 9.85938 212.102 9.91406C211.792 9.95052 211.491 10.0143 211.199 10.1055C210.926 10.1966 210.698 10.306 210.516 10.4336C210.424 10.5065 210.342 10.6979 210.27 11.0078C210.215 11.3177 210.169 11.6914 210.133 12.1289C210.096 12.5664 210.06 13.0404 210.023 13.5508C210.005 14.0612 209.987 14.5443 209.969 15C209.951 15.4375 209.941 15.8294 209.941 16.1758C209.941 16.5039 209.941 16.7135 209.941 16.8047C209.941 18.0078 209.969 19.2109 210.023 20.4141C209.495 20.4323 208.975 20.4505 208.465 20.4688C207.973 20.487 207.462 20.4961 206.934 20.4961C206.879 20.4961 206.806 20.4961 206.715 20.4961C206.624 20.4961 206.533 20.487 206.441 20.4688C206.332 20.4688 206.223 20.4596 206.113 20.4414V18.4453C206.113 17.8802 206.104 17.2969 206.086 16.6953C206.068 16.0938 206.049 15.5651 206.031 15.1094C206.013 14.7995 205.986 14.3984 205.949 13.9062C205.913 13.4141 205.831 12.9401 205.703 12.4844C205.576 12.0104 205.384 11.6094 205.129 11.2812C204.892 10.9349 204.555 10.7617 204.117 10.7617C203.917 10.7617 203.643 10.7982 203.297 10.8711C202.969 10.9258 202.622 11.0078 202.258 11.1172C201.911 11.2083 201.583 11.3268 201.273 11.4727C200.982 11.6003 200.772 11.737 200.645 11.8828C200.608 11.9193 200.562 12.1289 200.508 12.5117C200.471 12.8763 200.435 13.332 200.398 13.8789C200.362 14.4076 200.316 14.9909 200.262 15.6289C200.225 16.2487 200.189 16.832 200.152 17.3789C200.134 17.9258 200.107 18.3997 200.07 18.8008C200.052 19.1836 200.043 19.4115 200.043 19.4844C199.678 19.5208 199.305 19.5573 198.922 19.5938C198.557 19.612 198.193 19.6211 197.828 19.6211C197.482 19.6211 197.135 19.612 196.789 19.5938C196.443 19.5755 196.105 19.5482 195.777 19.5117C195.686 17.1966 195.549 14.9089 195.367 12.6484C195.203 10.388 195.021 8.10026 194.82 5.78516C195.331 5.73047 195.832 5.6849 196.324 5.64844C196.835 5.59375 197.345 5.56641 197.855 5.56641C198.348 5.56641 198.84 5.57552 199.332 5.59375C199.824 5.61198 200.326 5.63021 200.836 5.64844L200.48 8C201.319 7.32552 202.121 6.82422 202.887 6.49609C203.671 6.16797 204.6 6.00391 205.676 6.00391C206.095 6.00391 206.46 6.05859 206.77 6.16797C207.098 6.25911 207.389 6.39583 207.645 6.57812C207.918 6.74219 208.182 6.94271 208.438 7.17969C208.693 7.41667 208.966 7.67188 209.258 7.94531C209.586 7.4349 209.96 7.03385 210.379 6.74219C210.816 6.43229 211.281 6.19531 211.773 6.03125C212.266 5.86719 212.785 5.76693 213.332 5.73047C213.879 5.67578 214.426 5.64844 214.973 5.64844C215.41 5.64844 215.866 5.66667 216.34 5.70312C216.832 5.72135 217.297 5.79427 217.734 5.92188C218.19 6.04948 218.6 6.24089 218.965 6.49609C219.329 6.7513 219.612 7.09766 219.812 7.53516C220.049 8.0638 220.241 8.64714 220.387 9.28516C220.533 9.92318 220.642 10.5794 220.715 11.2539C220.806 11.9284 220.861 12.5938 220.879 13.25C220.915 13.9062 220.934 14.5169 220.934 15.082ZM242.617 11.8555C240.229 11.9831 237.85 12.0924 235.48 12.1836C233.111 12.2565 230.732 12.3385 228.344 12.4297C228.326 12.5026 228.316 12.5755 228.316 12.6484C228.316 12.7214 228.316 12.7943 228.316 12.8672C228.316 13.487 228.453 13.9609 228.727 14.2891C229.018 14.6172 229.374 14.8542 229.793 15C230.212 15.1276 230.677 15.2005 231.188 15.2188C231.698 15.237 232.172 15.2461 232.609 15.2461C233.831 15.2461 235.052 15.2096 236.273 15.1367C237.495 15.0456 238.725 14.9544 239.965 14.8633L240.184 19.2109C238.98 19.2656 237.777 19.3112 236.574 19.3477C235.389 19.3841 234.195 19.4023 232.992 19.4023C232.737 19.4023 232.263 19.4023 231.57 19.4023C230.896 19.3841 230.167 19.3568 229.383 19.3203C228.617 19.2656 227.897 19.2018 227.223 19.1289C226.548 19.056 226.102 18.9557 225.883 18.8281C225.318 18.5 224.871 18.0807 224.543 17.5703C224.233 17.0599 223.987 16.5039 223.805 15.9023C223.641 15.3008 223.522 14.6901 223.449 14.0703C223.395 13.4323 223.358 12.8216 223.34 12.2383C223.322 12.1471 223.312 12.056 223.312 11.9648C223.331 11.8555 223.34 11.7552 223.34 11.6641C223.34 10.6979 223.44 9.80469 223.641 8.98438C223.859 8.14583 224.251 7.33464 224.816 6.55078C225.199 6.00391 225.764 5.54818 226.512 5.18359C227.259 4.81901 228.07 4.53646 228.945 4.33594C229.82 4.11719 230.695 3.97135 231.57 3.89844C232.445 3.80729 233.202 3.76172 233.84 3.76172C234.405 3.76172 235.098 3.81641 235.918 3.92578C236.738 4.01693 237.549 4.18099 238.352 4.41797C239.172 4.65495 239.91 4.96484 240.566 5.34766C241.223 5.71224 241.669 6.16797 241.906 6.71484C241.943 6.82422 241.979 7.01562 242.016 7.28906C242.07 7.54427 242.125 7.84505 242.18 8.19141C242.234 8.51953 242.28 8.875 242.316 9.25781C242.371 9.64062 242.417 10.0052 242.453 10.3516C242.49 10.6979 242.517 11.0078 242.535 11.2812C242.572 11.5547 242.599 11.7461 242.617 11.8555ZM238.898 9.85938C238.789 9.05729 238.579 8.42839 238.27 7.97266C237.978 7.4987 237.604 7.15234 237.148 6.93359C236.711 6.69661 236.201 6.55078 235.617 6.49609C235.052 6.42318 234.441 6.38672 233.785 6.38672C233.566 6.38672 233.293 6.39583 232.965 6.41406C232.637 6.41406 232.309 6.44141 231.98 6.49609C231.652 6.53255 231.342 6.59635 231.051 6.6875C230.759 6.77865 230.531 6.90625 230.367 7.07031C230.24 7.17969 230.13 7.33464 230.039 7.53516C229.966 7.71745 229.902 7.91797 229.848 8.13672C229.793 8.35547 229.747 8.57422 229.711 8.79297C229.693 8.99349 229.684 9.16667 229.684 9.3125C229.684 9.60417 229.711 9.88672 229.766 10.1602L238.898 9.85938ZM249.043 20.9883C249.043 21.0794 249.043 21.1979 249.043 21.3438C249.043 21.4896 249.034 21.6354 249.016 21.7812C248.997 21.9271 248.97 22.0638 248.934 22.1914C248.897 22.3372 248.852 22.4375 248.797 22.4922C248.724 22.5469 248.578 22.5924 248.359 22.6289C248.141 22.6836 247.904 22.7201 247.648 22.7383C247.393 22.7747 247.147 22.793 246.91 22.793C246.691 22.8112 246.527 22.8203 246.418 22.8203C246.309 22.8203 246.172 22.8112 246.008 22.793C245.862 22.793 245.707 22.7839 245.543 22.7656C245.379 22.7474 245.224 22.7109 245.078 22.6562C244.951 22.6198 244.859 22.5651 244.805 22.4922C244.732 22.4193 244.668 22.2826 244.613 22.082C244.577 21.8997 244.54 21.6992 244.504 21.4805C244.486 21.2617 244.467 21.0521 244.449 20.8516C244.449 20.651 244.449 20.4961 244.449 20.3867C244.449 20.168 244.467 19.8854 244.504 19.5391C244.54 19.1927 244.641 18.9466 244.805 18.8008C244.859 18.7461 244.987 18.7096 245.188 18.6914C245.406 18.6549 245.634 18.6276 245.871 18.6094C246.126 18.5729 246.372 18.5547 246.609 18.5547C246.846 18.5365 247.01 18.5273 247.102 18.5273C247.302 18.5273 247.585 18.5456 247.949 18.582C248.332 18.6003 248.596 18.6732 248.742 18.8008C248.797 18.8919 248.842 19.0378 248.879 19.2383C248.934 19.4206 248.97 19.6302 248.988 19.8672C249.007 20.0859 249.016 20.3047 249.016 20.5234C249.034 20.724 249.043 20.8789 249.043 20.9883ZM256.207 3.70703C256.207 4.07161 256.125 4.41797 255.961 4.74609C255.815 5.05599 255.605 5.32943 255.332 5.56641C255.077 5.80339 254.785 5.99479 254.457 6.14062C254.129 6.26823 253.801 6.33203 253.473 6.33203C253.108 6.33203 252.762 6.25 252.434 6.08594C252.124 5.92188 251.85 5.71224 251.613 5.45703C251.376 5.20182 251.194 4.91016 251.066 4.58203C250.939 4.23568 250.875 3.88932 250.875 3.54297C250.875 3.19661 250.939 2.8776 251.066 2.58594C251.212 2.27604 251.395 2.01172 251.613 1.79297C251.85 1.57422 252.115 1.40104 252.406 1.27344C252.716 1.14583 253.044 1.08203 253.391 1.08203C253.737 1.08203 254.074 1.15495 254.402 1.30078C254.749 1.42839 255.049 1.61979 255.305 1.875C255.578 2.11198 255.797 2.39453 255.961 2.72266C256.125 3.03255 256.207 3.36068 256.207 3.70703ZM257.328 8.35547C257.237 9.32161 257.164 10.2786 257.109 11.2266C257.055 12.1745 257 13.1224 256.945 14.0703C256.872 15.1823 256.745 16.2852 256.562 17.3789C256.398 18.4727 256.207 19.5664 255.988 20.6602L251.805 21.0977C251.805 20.5143 251.805 19.9401 251.805 19.375C251.823 18.8099 251.832 18.2357 251.832 17.6523C251.832 16.1576 251.805 14.6628 251.75 13.168C251.695 11.6732 251.641 10.1784 251.586 8.68359C252.552 8.64714 253.5 8.59245 254.43 8.51953C255.378 8.44661 256.344 8.39193 257.328 8.35547ZM279.176 6.79688C279.176 7.5625 279.176 8.31901 279.176 9.06641C279.176 9.8138 279.158 10.5703 279.121 11.3359C279.085 13.013 279.012 14.681 278.902 16.3398C278.793 17.9805 278.674 19.6302 278.547 21.2891C276.888 21.3984 275.247 21.4896 273.625 21.5625C272.003 21.6354 270.362 21.6719 268.703 21.6719C268.484 21.6719 268.138 21.6719 267.664 21.6719C267.19 21.6536 266.68 21.6354 266.133 21.6172C265.604 21.599 265.103 21.5716 264.629 21.5352C264.155 21.4805 263.809 21.4076 263.59 21.3164C262.186 20.806 261.138 20.1224 260.445 19.2656C259.771 18.3906 259.434 17.1875 259.434 15.6562V15.2188C259.47 14.5443 259.525 13.9427 259.598 13.4141C259.671 12.8854 259.798 12.4023 259.98 11.9648C260.181 11.5273 260.445 11.1263 260.773 10.7617C261.12 10.3789 261.585 9.99609 262.168 9.61328C262.569 9.33984 263.043 9.11198 263.59 8.92969C264.137 8.7474 264.702 8.59245 265.285 8.46484C265.887 8.33724 266.47 8.24609 267.035 8.19141C267.618 8.13672 268.147 8.10938 268.621 8.10938C269.496 8.10938 270.362 8.17318 271.219 8.30078C272.094 8.42839 272.96 8.61979 273.816 8.875C273.725 7.67188 273.643 6.48698 273.57 5.32031C273.516 4.13542 273.424 2.95052 273.297 1.76562C274.281 1.67448 275.257 1.57422 276.223 1.46484C277.189 1.35547 278.155 1.24609 279.121 1.13672C279.139 2.08464 279.148 3.03255 279.148 3.98047C279.167 4.91016 279.176 5.84896 279.176 6.79688ZM274.992 15.0547C274.992 14.6354 274.992 14.2161 274.992 13.7969C274.992 13.3776 274.983 12.9583 274.965 12.5391C273.816 12.4844 272.668 12.457 271.52 12.457C271.355 12.457 271.009 12.4661 270.48 12.4844C269.952 12.4844 269.387 12.5026 268.785 12.5391C268.202 12.5573 267.655 12.6029 267.145 12.6758C266.634 12.7305 266.306 12.8034 266.16 12.8945C265.887 13.0951 265.714 13.3776 265.641 13.7422C265.586 14.1068 265.559 14.444 265.559 14.7539C265.559 14.8997 265.568 15.1003 265.586 15.3555C265.604 15.5924 265.632 15.8477 265.668 16.1211C265.723 16.3763 265.786 16.6224 265.859 16.8594C265.932 17.0781 266.014 17.2422 266.105 17.3516C266.16 17.4062 266.251 17.4518 266.379 17.4883C266.525 17.5247 266.68 17.5521 266.844 17.5703C267.008 17.5885 267.163 17.5977 267.309 17.5977C267.473 17.5977 267.6 17.5977 267.691 17.5977C268.73 17.5977 269.76 17.5521 270.781 17.4609C271.802 17.3698 272.832 17.2513 273.871 17.1055C274.017 17.069 274.19 17.0508 274.391 17.0508C274.591 17.0326 274.773 16.9961 274.938 16.9414V16.8867C274.938 16.8685 274.947 16.8503 274.965 16.832C275.001 16.5404 275.01 16.2487 274.992 15.957C274.992 15.6654 274.992 15.3646 274.992 15.0547Z" fill="white"/>
</svg>
