<svg width="90" height="74" viewBox="0 0 90 74" fill="none" xmlns="http://www.w3.org/2000/svg">
<g id="Helmet" filter="url(#filter0_d_36_2748)">
<path id="path14" d="M10.6659 40.4638C10.6659 40.4638 42.779 54.4004 63.4811 54.6156C63.4811 54.6156 94.1494 37.5359 70.7255 17.4197C47.3012 -2.69673 15.0736 20.2043 10.6659 40.4638Z" fill="#2C2628"/>
<path id="path16" d="M28.6205 16.6606C28.6205 16.6606 36.7526 23.9711 55.1015 26.6189C55.1015 26.6189 62.912 27.2208 59.6634 31.888C55.3605 38.0705 49.6079 44.016 28.2982 38.306C28.2982 38.306 16.3315 34.8636 13.6863 32.5669C13.6863 32.5669 18.8968 22.587 28.6205 16.6606Z" fill="#717171"/>
<path id="path18" d="M36.6575 24.0343L23.184 34.7192C23.3745 34.7932 23.5646 34.866 23.75 34.9366C24.5817 35.2513 25.4196 35.5489 26.2624 35.8312L39.6646 25.2024C38.6008 24.8213 37.5981 24.4294 36.6575 24.0343Z" fill="#929292"/>
<path id="path20" d="M26.341 18.1786C18.4262 23.1448 14.7834 30.7069 14.7834 30.7069C15.3757 31.3595 17.3458 32.3217 19.5912 33.2752L33.2315 22.4575C28.6976 20.1778 26.341 18.1786 26.341 18.1786Z" fill="#929292"/>
<path id="path22" d="M53.6205 28.6694L40.9719 38.7003C49.5222 38.9816 52.7586 35.7353 55.3366 32.371C56.9071 30.3215 55.2767 29.228 53.6205 28.6694Z" fill="#929292"/>
<path id="path24" d="M41.8884 25.9497L28.5362 36.5396C30.483 37.1114 32.4542 37.5946 34.4522 37.9567C35.0361 38.062 35.5959 38.1525 36.1452 38.2349L49.2976 27.8034C46.6001 27.2936 44.1274 26.6561 41.8884 25.9497Z" fill="#929292"/>
<path id="path26" d="M33.2316 22.4576L19.5913 33.2752C20.7665 33.7749 22.0156 34.2714 23.184 34.7192L36.6575 24.0343C35.4042 23.5075 34.2617 22.9758 33.2316 22.4576Z" fill="#A5A5A5"/>
<path id="path28" d="M51.188 28.1366C50.5448 28.0331 49.9172 27.9203 49.2976 27.8034L36.1453 38.2349C37.9214 38.501 39.5245 38.6518 40.972 38.7004L53.6206 28.6694C52.4108 28.2606 51.188 28.1366 51.188 28.1366Z" fill="#A5A5A5"/>
<path id="path30" d="M39.6645 25.2023L26.2623 35.8311C27.0151 36.084 27.7746 36.3147 28.5361 36.5396L41.8884 25.9496C41.1188 25.7079 40.3788 25.4574 39.6645 25.2023Z" fill="#A5A5A5"/>
<path id="path32" d="M76.4731 21.7953C76.4731 21.7953 54.832 33.1273 30.6882 13.1574C30.6882 13.1574 54.6318 -1.82982 76.4731 21.7953Z" fill="#929292"/>
<path id="path34" d="M68.4018 14.757C62.8818 16.6596 49.8343 19.4821 34.6422 11.2373C32.1366 12.252 30.6881 13.1575 30.6881 13.1575C54.8321 33.1263 76.473 21.7953 76.473 21.7953C73.7974 18.9026 71.0919 16.5908 68.4018 14.757Z" fill="#656565"/>
<path id="path36" d="M78.9509 28.9647C78.9509 28.9647 66.8837 26.6751 56.2581 45.7979C56.2581 45.7979 66.8559 45.8259 69.6616 50.1765C69.6616 50.1765 82.5373 41.31 78.9509 28.9647Z" fill="#8E8E8E"/>
<path id="path38" d="M79.5476 34.2488C79.6491 32.5763 79.4869 30.8102 78.9508 28.9647C78.9508 28.9647 66.8837 26.6752 56.2581 45.7979C56.2581 45.7979 58.6154 45.8052 61.4007 46.2686C68.8826 35.6728 76.4343 34.3093 79.5476 34.2488Z" fill="#605F5F"/>
<path id="path40" d="M70.3998 49.5871C70.3998 49.5871 63.8502 41.1012 45.7381 45.4754C45.7381 45.4754 33.775 48.0987 28.8414 47.303C28.8414 47.303 45.5146 53.868 63.4811 54.6156C63.4811 54.6156 68.4657 51.679 70.3998 49.5871Z" fill="#717171"/>
<path id="path42" d="M68.0683 51.6101C68.0683 51.6101 63.1063 44.1624 43.1018 51.5031C43.1018 51.5031 58.7232 55.1563 63.4811 54.6156C63.4811 54.6156 67.2254 52.2153 68.0683 51.6101Z" fill="#656565"/>
<path id="path44" d="M10.9739 39.2047C10.9739 39.2047 24.1977 41.1746 13.2198 33.4681C13.2198 33.4681 11.6848 36.1054 10.9739 39.2047Z" fill="#717171"/>
</g>
<defs>
<filter id="filter0_d_36_2748" x="0.665894" y="7.47035" width="88.9158" height="66.1999" filterUnits="userSpaceOnUse" color-interpolation-filters="sRGB">
<feFlood flood-opacity="0" result="BackgroundImageFix"/>
<feColorMatrix in="SourceAlpha" type="matrix" values="0 0 0 0 0 0 0 0 0 0 0 0 0 0 0 0 0 0 127 0" result="hardAlpha"/>
<feOffset dy="9"/>
<feGaussianBlur stdDeviation="5"/>
<feComposite in2="hardAlpha" operator="out"/>
<feColorMatrix type="matrix" values="0 0 0 0 0 0 0 0 0 0 0 0 0 0 0 0 0 0 0.25 0"/>
<feBlend mode="normal" in2="BackgroundImageFix" result="effect1_dropShadow_36_2748"/>
<feBlend mode="normal" in="SourceGraphic" in2="effect1_dropShadow_36_2748" result="shape"/>
</filter>
</defs>
</svg>
