<svg width="80" height="85" viewBox="0 0 80 85" fill="none" xmlns="http://www.w3.org/2000/svg">
<g filter="url(#filter0_d_36_2831)">
<path d="M49.725 18.6043L42.8265 14.493L29.976 10.1109C29.976 10.1109 14.5601 18.8846 10.7247 29.1077C6.88981 39.33 6.03722 50.4873 6.03722 50.4873L14.6561 53.1239L18.7468 32.3725L26.7246 24.0693C26.7246 24.0693 22.9797 35.3341 21.1567 43.139C20.3749 46.4843 18.9406 49.6377 16.911 52.4085L16.6164 52.8102C16.6164 52.8102 18.4437 56.8224 27.7767 61.588L49.725 18.6043Z" fill="#252525"/>
<path d="M18.6775 49.6166C18.1491 50.5816 17.5647 51.517 16.9111 52.4084L16.6165 52.8102C16.6165 52.8102 18.4439 56.8224 27.7768 61.5879L29.4703 58.2714C21.7205 54.0995 19.2416 50.5733 18.6775 49.6166Z" fill="#AFACAC"/>
<path d="M49.7249 18.6043L57.0996 21.7811L68.1845 29.621C68.1845 29.621 70.117 47.2532 64.0849 56.3546C58.054 65.4556 49.5161 72.6886 49.5161 72.6886L42.3255 67.2525L56.7363 51.7707L58.7842 40.4396C58.7842 40.4396 51.8552 50.0786 46.6019 56.1319C44.3505 58.7268 42.6372 61.7378 41.5829 65.0065L41.4302 65.4807C41.4302 65.4807 37.1087 66.3531 27.7766 61.588L49.7249 18.6043Z" fill="#252525"/>
<path d="M58.2985 17.9423C58.4728 16.9927 52.2433 13.6727 52.2433 13.6727C52.2433 13.6727 45.9003 10.573 45.2324 11.2705C44.5658 11.9677 42.3093 14.7605 42.3093 14.7605C42.3093 14.7605 43.3464 16.6727 44.865 18.1934C46.3827 19.7136 48.5151 20.9739 48.5151 20.9739C48.5151 20.9739 50.7856 21.9618 52.907 22.2998C55.0292 22.6382 57.1863 22.3571 57.1863 22.3571C57.1863 22.3571 58.1255 18.8915 58.2985 17.9423Z" fill="#777779"/>
<path d="M50.2811 17.5154C47.4573 16.0735 45.5967 13.6534 45.2138 11.2901C44.5272 12.0159 42.3093 14.7605 42.3093 14.7605C42.3093 14.7605 43.3464 16.6727 44.865 18.1934C46.3827 19.7136 48.5151 20.9739 48.5151 20.9739C48.5151 20.9739 50.7856 21.9618 52.907 22.2998C55.0292 22.6382 57.1863 22.3571 57.1863 22.3571C57.1863 22.3571 58.1091 18.9511 58.2944 17.9694C56.1555 19.045 53.1041 18.9568 50.2811 17.5154Z" fill="#AFACAC"/>
<path d="M24.5534 48.3149L23.0701 47.5575L31.6057 30.8412L33.0891 31.5986L24.5534 48.3149Z" fill="#717171"/>
<path d="M47.5809 22.8038L29.7077 14.4323C29.7077 14.4323 18.7681 20.2287 13.5468 28.5977C13.5468 28.5977 9.8371 34.2216 8.15827 51.1368L10.9381 51.9868C10.9381 51.9868 12.3285 35.0472 15.8732 29.9366C19.4174 24.8246 27.4555 18.0298 29.6382 19.0397C31.8213 20.0509 45.7057 26.4762 45.7057 26.4762L47.5809 22.8038Z" fill="#717171"/>
<path d="M42.8086 61.9385C42.3376 62.9329 41.9217 63.9543 41.5829 65.0065L41.4302 65.4807C41.4302 65.4807 37.1087 66.3531 27.7766 61.588L29.4701 58.2714C37.3929 62.1023 41.7029 62.0426 42.8086 61.9385Z" fill="#AFACAC"/>
<path d="M40.4177 56.4155L41.9011 57.1729L50.4368 40.4567L48.9534 39.6992L40.4177 56.4155Z" fill="#717171"/>
<path d="M47.5808 22.8037L64.8417 32.3724C64.8417 32.3724 66.561 44.6327 62.8436 53.7696C62.8436 53.7696 60.4632 60.0723 47.7457 71.351L45.4271 69.5976C45.4271 69.5976 58.3335 58.5384 60.3948 52.6703C62.4575 46.8017 63.249 36.3067 61.1502 35.1304C59.051 33.9549 45.7056 26.4762 45.7056 26.4762L47.5808 22.8037Z" fill="#717171"/>
<path d="M43.7126 30.3787L26.5354 24.6404L25.7492 27.0883L42.2266 33.2889L43.7126 30.3787Z" fill="#D8D8D8"/>
<path d="M43.6709 30.3574L58.3907 40.9063L56.8697 42.979L42.1849 33.2676L43.6709 30.3574Z" fill="#D8D8D8"/>
<path d="M28.4944 61.948L27.0769 61.2242L49.5922 17.1302L51.0097 17.854L28.4944 61.948Z" fill="#666567"/>
</g>
<defs>
<filter id="filter0_d_36_2831" x="0.0371094" y="10.1109" width="74.4421" height="74.5777" filterUnits="userSpaceOnUse" color-interpolation-filters="sRGB">
<feFlood flood-opacity="0" result="BackgroundImageFix"/>
<feColorMatrix in="SourceAlpha" type="matrix" values="0 0 0 0 0 0 0 0 0 0 0 0 0 0 0 0 0 0 127 0" result="hardAlpha"/>
<feOffset dy="6"/>
<feGaussianBlur stdDeviation="3"/>
<feComposite in2="hardAlpha" operator="out"/>
<feColorMatrix type="matrix" values="0 0 0 0 0 0 0 0 0 0 0 0 0 0 0 0 0 0 0.25 0"/>
<feBlend mode="normal" in2="BackgroundImageFix" result="effect1_dropShadow_36_2831"/>
<feBlend mode="normal" in="SourceGraphic" in2="effect1_dropShadow_36_2831" result="shape"/>
</filter>
</defs>
</svg>
