<svg width="134" height="131" viewBox="0 0 134 131" fill="none" xmlns="http://www.w3.org/2000/svg">
<g filter="url(#filter0_d_36_2765)">
<path d="M61.7518 23.0967C61.2851 20.9741 58.5422 19.7724 55.6254 20.4138C52.7081 21.0552 50.3864 23.593 50.8531 25.7156C51.0367 26.5504 50.4079 31.1528 50.4079 31.1528L58.2522 30.8928L58.4661 27.396C60.7623 26.4979 62.1573 24.9407 61.7518 23.0967Z" fill="#282828"/>
<path d="M75.1697 47.4078L73.45 42.7156L62.2393 46.7793C62.2393 46.7793 64.1124 30.5968 56.7485 30.1654C49.3838 29.7329 56.0475 54.082 58.7977 54.265C61.5484 54.4465 75.1697 47.4078 75.1697 47.4078Z" fill="#89878A"/>
<path d="M75.0844 47.3406C75.0844 47.3406 79.4673 46.2635 78.8845 43.3801C78.3027 40.4964 73.4485 42.7091 73.4485 42.7091L75.0844 47.3406Z" fill="#282828"/>
<path d="M83.8499 51.8132L43.6076 72.9019L67.824 85.741L84.0636 62.9976L83.8499 51.8132Z" fill="#818182"/>
<path d="M67.1696 71.2542C66.7136 72.5367 65.2736 73.839 62.5093 75.0325C61.9882 75.2576 61.4686 75.4633 60.9491 75.6567C56.0707 75.5403 43.3991 75.7928 39.1976 77.2367L37.1582 80.122L46.0159 83.8549L51.6016 93.6561L65.6453 95.3463L68.6389 76.1297L68.6384 76.1298C69.8044 74.4113 69.0694 72.6835 67.1696 71.2542Z" fill="#AEACAB"/>
<path d="M47.6285 86.6854C54.1095 86.0357 60.6117 86.0067 67.1197 85.8849L68.6388 76.1298L68.6383 76.1299C69.8043 74.4114 69.0693 72.6836 67.1695 71.2542C66.7135 72.5368 65.2735 73.839 62.5092 75.0325C61.9881 75.2577 61.4685 75.4634 60.949 75.6568C56.0706 75.5404 43.399 75.7928 39.1975 77.2368L37.1581 80.1221L46.0158 83.855L47.6285 86.6854Z" fill="#838383"/>
<path d="M62.5092 75.0325C65.2735 73.839 66.7135 72.5368 67.1695 71.2543C63.0382 68.1449 53.3971 66.4518 45.7862 69.3717L38.9243 77.1099C44.0479 78.1989 53.3696 78.9821 62.5092 75.0325Z" fill="#818182"/>
<path d="M44.0728 93.2924C45.0569 97.7682 42.2252 102.197 37.7478 103.181C33.2709 104.166 28.8421 101.333 27.858 96.8577C26.8733 92.3794 29.7054 87.9505 34.1824 86.9661C38.6598 85.9816 43.0881 88.8141 44.0728 93.2924Z" fill="#717171"/>
<path d="M38.247 105.451C32.5162 106.711 26.8483 103.087 25.5884 97.3567C24.3279 91.6244 27.9529 85.9577 33.6837 84.6976C39.415 83.4374 45.0827 87.0608 46.3431 92.7932C47.603 98.523 43.9783 104.191 38.247 105.451ZM32.3732 78.7373C23.3507 80.7212 17.6452 89.6439 19.6292 98.6671C21.6126 107.688 30.5348 113.394 39.5573 111.41C48.5798 109.426 54.2858 100.503 52.3023 91.4829C50.3183 82.4598 41.3957 76.7534 32.3732 78.7373Z" fill="#282828"/>
<path d="M40.7339 94.0265C41.3126 96.6583 39.6472 99.2634 37.0138 99.8425C34.3803 100.422 31.7763 98.7552 31.1976 96.1234C30.6183 93.489 32.2832 90.884 34.9167 90.305C37.5501 89.7259 40.1547 91.3921 40.7339 94.0265Z" fill="#383838"/>
<path d="M58.4992 65.2549C59.3554 65.7273 60.3485 65.8708 61.3223 65.7768C64.5009 65.4697 73.0691 64.4321 78.8674 61.7524C83.4959 59.6111 80.3827 55.3018 77.5379 52.4748C75.7962 50.7431 73.1251 50.3775 70.9668 51.5483C64.7614 54.9182 52.8613 62.1409 58.4992 65.2549Z" fill="#434343"/>
<path d="M57.6003 64.5734C57.8277 64.8169 58.1207 65.046 58.4995 65.2548C59.3557 65.7273 60.3487 65.8707 61.3226 65.7767C64.5012 65.4696 73.0694 64.4321 78.8677 61.7524C83.2561 59.7226 80.6854 55.7459 77.9819 52.9287C71.1708 56.7799 64.4415 60.7742 57.6003 64.5734Z" fill="#828282"/>
<path d="M13.6081 85.2142C13.6081 85.2142 15.2177 88.0794 17.1605 87.4393C17.1605 87.4393 25.6215 75.6649 39.1977 77.2367L41.8212 74.0128C41.8212 74.0128 23.5128 62.0631 13.6081 85.2142Z" fill="#828282"/>
<path d="M15.7202 87.3286C23.2616 70.1251 35.5017 72.7702 40.9739 75.0537L41.8212 74.0128C41.8212 74.0128 23.5127 62.0631 13.608 85.2142C13.608 85.2142 14.4832 86.7665 15.7202 87.3286Z" fill="#434343"/>
<path d="M42.2255 66.6775L38.821 64.4773C37.281 63.4835 35.3283 63.3845 33.6962 64.2199L27.7367 67.2681C26.556 67.8718 26.4653 69.5326 27.5807 70.2499C31.2453 72.6045 38.3002 76.6 43.5447 76.2809C48.517 75.9781 53.6857 73.0491 56.5417 71.1611C58.3852 69.9434 59.5974 67.8967 59.5803 65.6875C59.5681 64.2567 59.0896 62.8616 57.4476 62.3612C56.4009 62.0398 55.2655 62.2895 54.344 62.8812C52.6809 63.9486 49.2858 65.9893 46.0141 67.1319C44.7489 67.5739 43.3515 67.4033 42.2255 66.6775Z" fill="#302F30"/>
<path d="M57.4476 62.3612L57.4291 62.3571C57.0126 63.9313 55.9832 65.318 54.5949 66.2362C51.7384 68.1244 46.5695 71.0521 41.598 71.3561C37.4495 71.6075 32.1741 69.162 28.334 66.9621L27.7367 67.2681C26.556 67.8718 26.4653 69.5326 27.5807 70.2499C31.2453 72.6045 38.3002 76.6 43.5447 76.2809C48.517 75.9781 53.6857 73.0491 56.5417 71.1611C58.3852 69.9434 59.5974 67.8967 59.5803 65.6875C59.5681 64.2567 59.0896 62.8616 57.4476 62.3612Z" fill="#282828"/>
<path d="M44.3454 78.8912C44.3454 78.8912 47.1801 83.2345 54.786 81.8774C62.391 80.5193 72.257 77.2346 73.1584 72.9012C73.9966 68.8725 74.7097 66.5151 67.3658 68.7142C60.5542 70.7539 42.9222 76.7837 44.3454 78.8912Z" fill="#8A8A8A"/>
<path d="M47.3888 81.2295C51.6052 78.5386 63.6377 74.4703 68.9913 72.8672C70.9877 72.2699 72.3734 72.0185 73.3381 72.0357C74.0565 68.5508 74.1645 66.6772 67.3657 68.7141C60.5542 70.7538 42.9221 76.7836 44.3454 78.8912C44.3454 78.8912 45.2447 80.2675 47.3888 81.2295Z" fill="#4B4A4A"/>
<path d="M80.5375 48.1743L57.1484 95.9327L79.3529 91.0503L84.9202 84.5989L87.4527 56.1254L80.5375 48.1743Z" fill="#302F30"/>
<path d="M83.0621 51.0772L65.3765 94.1235L79.3531 91.0503L84.9204 84.5989L87.4529 56.1254L83.0621 51.0772Z" fill="#282828"/>
<path d="M80.3934 77.0905L81.3579 82.3842C81.6177 83.4056 81.4924 84.4898 81.0046 85.4557L80.3233 86.8028C79.6777 88.0792 78.4586 89.0299 77.0077 89.3844L53.7101 95.0996L54.5256 98.8083L79.6124 93.9885C80.9995 93.6835 82.1972 92.8344 82.8971 91.6594L85.6739 86.9929C86.2736 85.9859 86.4611 84.8157 86.1998 83.71L84.9537 76.0878L80.3934 77.0905Z" fill="#A0A0A0"/>
<path d="M83.512 76.4048L84.4876 82.3718C84.7488 83.4775 84.5614 84.6477 83.9616 85.6547L81.1848 90.3212C80.485 91.4963 79.2875 92.3466 77.9004 92.6516L54.174 97.2092L54.5256 98.8083L79.6124 93.9885C80.9995 93.6835 82.1972 92.8344 82.8971 91.6594L85.6739 86.9929C86.2736 85.9859 86.4611 84.8157 86.1998 83.71L84.9537 76.0878L83.512 76.4048Z" fill="#5E5E5E"/>
<path d="M87.1326 77.5132L73.3071 80.5531C71.8822 80.8664 70.4736 79.9652 70.16 78.5393L70.1486 78.4872C69.8353 77.0626 70.7363 75.6549 72.1612 75.3416L86.8041 72.1219L87.1326 77.5132Z" fill="#8A8A8A"/>
<path d="M72.5818 77.2545L86.9245 74.1008L86.8041 72.1218L72.1612 75.3415C70.7363 75.6548 69.8353 77.0625 70.1486 78.4871L70.16 78.5392C70.2325 78.8686 70.3684 79.1664 70.5448 79.4307C70.7066 78.3862 71.4861 77.4954 72.5818 77.2545Z" fill="#4B4A4A"/>
<path d="M108.737 89.9519C103.006 91.212 97.3384 87.5872 96.0785 81.8574C94.818 76.125 98.4425 70.4584 104.173 69.1983C109.905 67.9382 115.572 71.5616 116.833 77.294C118.093 83.0238 114.468 88.6917 108.737 89.9519ZM102.863 63.238C93.8402 65.2219 88.1342 74.1448 90.1182 83.1679C92.1016 92.1885 101.024 97.8948 110.047 95.9109C119.07 93.9269 124.776 85.004 122.792 75.9835C120.808 66.9604 111.886 61.2541 102.863 63.238Z" fill="#282828"/>
<path d="M114.562 77.7932C115.546 82.2689 112.715 86.6976 108.237 87.6822C103.761 88.6665 99.3323 85.8341 98.3482 81.3583C97.3635 76.88 100.195 72.4512 104.672 71.4668C109.15 70.4823 113.578 73.3148 114.562 77.7932Z" fill="#717171"/>
<path d="M111.223 78.5273C111.802 81.1591 110.137 83.7642 107.503 84.3432C104.87 84.9222 102.266 83.2558 101.688 80.624C101.108 77.9896 102.773 75.3847 105.406 74.8057C108.04 74.2267 110.644 75.8929 111.223 78.5273Z" fill="#383838"/>
<path d="M103.501 79.678L76.461 46.1642L79.1057 42.7991L106.86 77.0308C107.4 77.6957 107.574 78.6281 107.187 79.3917C106.914 79.9295 106.407 80.4219 105.466 80.5333C104.715 80.6191 103.975 80.2658 103.501 79.678Z" fill="#989898"/>
<path d="M109.075 58.507C109.075 58.507 84.4478 56.2224 84.6396 83.3228L87.498 82.6943C87.498 82.6943 84.9201 60.9758 108.987 60.7802L109.075 58.507Z" fill="#434343"/>
<path d="M78.5376 43.8495L81.1141 46.7683C81.1141 46.7683 72.5618 55.528 69.3376 53.7768C66.1132 52.0244 70.8648 49.7305 78.5376 43.8495Z" fill="#302F30"/>
<path d="M78.5377 43.8495C78.322 44.013 78.1185 44.167 77.9083 44.3265L78.9726 45.5314C78.9726 45.5314 72.0979 52.5706 68.3522 52.7621C68.4459 53.1279 68.7587 53.4618 69.3378 53.7768C72.562 55.528 81.1142 46.7683 81.1142 46.7683L78.5377 43.8495Z" fill="#282828"/>
<path d="M78.1308 46.7894L78.2136 46.8682C79.632 48.2109 81.8679 48.1616 83.2253 46.756L84.9776 44.944C86.3183 43.5598 86.3135 41.3575 84.9664 39.9772L84.9163 39.9268C83.5294 38.5062 81.2492 38.4915 79.8462 39.8962L78.0607 41.6813C76.6416 43.0992 76.6727 45.409 78.1308 46.7894Z" fill="#717171"/>
<path d="M84.9665 39.9772L84.9164 39.9268C84.41 39.4088 83.7842 39.0822 83.1261 38.9389C83.7788 40.2534 83.5838 41.884 82.5091 42.994L80.7567 44.8059C79.8596 45.7335 78.5814 46.0569 77.4063 45.7911C77.5872 46.1527 77.8197 46.4947 78.1309 46.7894L78.2137 46.8681C79.6321 48.2109 81.868 48.1616 83.2254 46.7559L84.9777 44.944C86.3184 43.5598 86.3136 41.3575 84.9665 39.9772Z" fill="#737070"/>
<path d="M82.0621 43.8664C81.8572 45.6043 81.9819 48.4588 84.0781 51.4094C84.3486 51.7909 84.7225 52.0923 85.1498 52.2823C86.2197 52.7583 88.4154 53.38 91.0361 52.1362C94.7574 50.3691 91.517 39.6577 88.4058 40.1739C88.4058 40.1739 86.4033 39.7446 83.8176 41.2196C82.8448 41.7748 82.1927 42.7551 82.0621 43.8664Z" fill="#282828"/>
<path d="M91.036 52.1361C94.7574 50.369 91.517 39.6577 88.4058 40.1738C88.4058 40.1738 86.9104 42.2719 87.7945 46.3096C88.8403 51.0803 91.036 52.1361 91.036 52.1361Z" fill="#4B4A4A"/>
<path d="M51.6008 54.642C51.6008 54.642 36.6891 65.5645 34.6123 58.0962C34.6123 58.0962 38.4018 25.0419 56.8608 29.5251C58.0715 29.8186 58.8392 31.0164 58.5704 32.2331C57.4108 37.4683 54.188 51.2186 51.6008 54.642Z" fill="#282828"/>
<path d="M58.4541 51.7317C59.345 52.9092 68.5094 48.7071 73.6169 46.2393L72.996 44.5438L60.8521 48.945C60.8521 48.945 62.8724 33.836 57.0256 31.0056C57.1388 37.0626 57.4951 50.4654 58.4541 51.7317Z" fill="#383838"/>
<path d="M57.8789 54.5681C55.6651 54.6985 54.3453 37.3942 53.9223 30.7869C48.1663 33.415 54.3364 56.8678 57.1243 57.0521C60.1038 57.2488 74.8582 49.6251 74.8582 49.6251L74.1941 47.8148C69.1512 50.2383 60.1364 54.4335 57.8789 54.5681Z" fill="#383838"/>
<path d="M57.8789 54.568C60.1364 54.4334 69.1512 50.2383 74.1941 47.8148L73.6168 46.2393C68.5094 48.7071 59.3449 52.9092 58.454 51.7317C57.4951 50.4654 57.1387 37.0626 57.0255 31.0056C56.5056 30.754 55.9296 30.5885 55.2785 30.5501C54.766 30.5208 54.317 30.6059 53.9223 30.7869C54.3453 37.3942 55.6651 54.6985 57.8789 54.568Z" fill="#717171"/>
<path d="M74.8582 49.625C74.8582 49.625 79.9077 48.6349 79.2337 45.3005C78.5606 41.9673 72.9474 44.5244 72.9474 44.5244L74.8582 49.625Z" fill="#282828"/>
<path d="M64.7059 57.9119C59.5235 57.0556 50.61 55.354 50.61 55.354L40.8755 57.4712C39.7373 67.4894 64.2711 58.3721 63.5751 61.6582C63.3185 62.8682 60.1489 75.1555 58.9169 79.9206L62.7027 81.1073C62.7027 81.1073 69.8883 58.7683 64.7059 57.9119Z" fill="#383838"/>
<path d="M60.6586 62.6463C41.5303 67.0761 38.8644 61.3742 38.8389 57.9136L34.8608 58.7774C34.8608 58.7774 31.1387 73.5385 57.5837 65.4548C57.5837 65.4548 56.5712 71.7757 54.4095 78.509L56.8967 79.2877L61.1344 63.1246C61.2098 62.8391 60.947 62.5801 60.6586 62.6463Z" fill="#383838"/>
<path d="M40.8754 57.4713L38.839 57.9136C38.8645 61.3742 41.5304 67.0761 60.6587 62.6463C60.9471 62.5801 61.2099 62.8391 61.1345 63.1246L56.8968 79.2877L58.9168 79.9207C60.1488 75.1556 63.3184 62.8683 63.575 61.6583C64.271 58.3721 39.7372 67.4895 40.8754 57.4713Z" fill="#717171"/>
<path d="M60.8338 79.6219C60.8338 79.6219 62.6341 78.1107 64.3433 78.5158L63.2337 83.3919C63.0548 84.1766 63.1932 84.9994 63.6188 85.684L65.9589 89.4438C65.9589 89.4438 59.9809 87.9255 60.3396 84.2262C60.6975 80.5256 60.8338 79.6219 60.8338 79.6219Z" fill="#282828"/>
<path d="M54.2017 76.7076C54.2017 76.7076 57.7777 78.1356 61.4912 78.2338C61.4912 78.2338 61.3401 82.9086 61.1471 84.6261C60.9533 86.3425 64.971 89.1437 68.7788 89.5324C68.7788 89.5324 69.2367 90.9047 68.652 92.3562C68.652 92.3562 61.313 91.5753 59.6205 91.0737C57.929 90.5719 56.7671 89.4854 56.7671 89.4854L51.247 88.5026C51.247 88.5026 51.7528 84.9798 53.0767 83.6812C53.5513 83.2151 53.5025 82.5378 53.5819 81.8773L54.2017 76.7076Z" fill="#282828"/>
<path d="M51.5696 87.9566L50.4245 89.033L50.0298 91.2467L56.5481 92.4087C56.5481 92.4087 56.7966 91.0845 57.7288 91.4146C57.9005 91.4752 58.2264 92.7073 58.2264 92.7073L67.8088 94.4146L67.8386 94.4026C68.7862 94.0113 69.132 92.8486 68.5535 92.0024L68.5423 91.9858L57.5768 89.0276L51.5696 87.9566Z" fill="#282828"/>
<path d="M58.8034 81.7189L53.5914 80.7912L53.9594 78.7226L59.1717 79.6516L59.9119 80.8499L58.8034 81.7189Z" fill="#4B4A4A"/>
<path d="M57.6 81.8553L54.9978 81.3927L55.4835 78.6688L58.0858 79.1314L57.6 81.8553Z" fill="#282828"/>
<path d="M56.449 80.81L56.439 80.8081C56.1532 80.7576 55.9625 80.4842 56.0133 80.1987L56.0239 80.1404C56.075 79.8534 56.3484 79.6635 56.6341 79.714L56.6447 79.7158C56.9306 79.7676 57.1206 80.0398 57.0698 80.3254L57.059 80.3851C57.0086 80.6706 56.7353 80.8604 56.449 80.81Z" fill="#434343"/>
<path d="M58.2888 84.6089L53.0768 83.6812L53.4446 81.614L58.6568 82.543L59.3967 83.7401L58.2888 84.6089Z" fill="#4B4A4A"/>
<path d="M57.085 84.7466L54.4824 84.2827L54.9682 81.5588L57.5707 82.0227L57.085 84.7466Z" fill="#282828"/>
<path d="M55.9343 83.7L55.9238 83.6982C55.6382 83.6477 55.4474 83.3743 55.4986 83.0887L55.5092 83.0303C55.5597 82.7435 55.8332 82.5536 56.1195 82.604L56.129 82.606C56.4161 82.6576 56.6055 82.9299 56.5552 83.2153L56.5443 83.2751C56.4933 83.5621 56.2201 83.7505 55.9343 83.7Z" fill="#434343"/>
<path d="M63.2679 84.8807L57.1852 87.4195L56.5939 89.054L58.4716 89.639L64.4756 87.0602L63.2679 84.8807Z" fill="#4B4A4A"/>
<path d="M58.4554 86.3497L60.1175 89.3781L63.1253 87.8826L61.4071 84.9922L58.4554 86.3497Z" fill="#282828"/>
<path d="M60.0167 87.2392L60.2094 87.5749C60.3475 87.8149 60.6487 87.907 60.898 87.7839L61.3409 87.5651C61.628 87.4227 61.7225 87.0593 61.5407 86.7948L61.3273 86.4868C61.1822 86.2757 60.9069 86.1997 60.6747 86.3054L60.2533 86.4991C59.9726 86.629 59.8622 86.9714 60.0167 87.2392Z" fill="#434343"/>
<path d="M67.428 27.1374C67.428 27.1374 56.2272 28.6706 49.8234 26.5646C49.8234 26.5646 41.958 17.3112 51.0555 12.6856C60.153 8.05722 67.9569 19.529 67.428 27.1374Z" fill="#282828"/>
<path d="M64.1103 16.8526C64.1103 16.8526 60.9211 18.5736 55.0162 17.5744C55.0162 17.5744 52.552 16.9654 53.1182 18.9514C53.8697 21.5862 55.089 24.2887 62.1926 24.5206C62.1926 24.5206 66.2027 24.5659 67.2329 24.0349C67.2329 24.0349 66.556 19.9667 64.1103 16.8526Z" fill="#434343"/>
<path d="M64.6712 17.6276C64.6712 17.6276 63.7585 18.0849 62.1475 18.4105C61.7819 18.484 61.3798 18.5519 60.9446 18.6053C60.6177 18.6458 60.2724 18.6794 59.9084 18.7021C59.6646 18.7161 59.4125 18.7265 59.1531 18.7303C58.3967 18.7437 57.5752 18.7086 56.6953 18.6045C56.4935 18.5792 56.29 18.553 56.0816 18.5224C56.0816 18.5224 55.6928 18.4372 55.2821 18.4538C54.7192 18.4766 54.1144 18.6901 54.4079 19.5784C54.8897 21.037 55.5847 22.5224 58.2471 23.324C58.6982 23.4596 59.2074 23.5757 59.7797 23.6683C59.9568 23.6976 60.1369 23.7235 60.3267 23.7473C60.977 23.8309 61.6297 23.8676 62.2837 23.8726C62.5393 23.8738 62.7955 23.8721 63.0508 23.8623C63.3375 23.8512 63.6226 23.8335 63.9091 23.8101L64.1033 23.7933C64.5057 23.7581 64.9372 23.7151 65.3452 23.6623C66.127 23.5627 66.8244 23.4312 67.0677 23.2644C67.0677 23.2644 66.6489 20.2125 64.6712 17.6276Z" fill="#555555"/>
<path d="M48.8759 13.6235C48.8759 13.6235 54.493 19.8982 63.7986 15.3989C63.7986 15.3989 57.8115 7.59182 48.8759 13.6235Z" fill="#838383"/>
<path d="M52.0204 11.9901C53.5447 13.2426 57.3056 15.6129 62.758 14.3048C63.4361 14.9271 63.7986 15.3989 63.7986 15.3989C54.493 19.8982 48.8759 13.6235 48.8759 13.6235C49.9701 12.8832 51.0202 12.3547 52.0204 11.9901Z" fill="#AEACAB"/>
<path d="M47.4438 15.8893C47.4438 15.8893 51.378 16.3539 52.8722 24.2165C52.8722 24.2165 49.6022 23.1102 48.3313 24.3494C48.3313 24.3494 45.1871 19.8653 47.4438 15.8893Z" fill="#5E5E5E"/>
<path d="M46.7668 17.69C46.8911 17.0893 47.1062 16.4836 47.4438 15.8893C47.4438 15.8893 51.378 16.3539 52.8722 24.2165C52.8722 24.2165 52.1447 23.971 51.2432 23.8415C49.9229 19.3155 47.7211 18.0385 46.7668 17.69Z" fill="#A0A0A0"/>
<path d="M48.158 24.0639C48.158 24.0639 50.9684 21.7599 56.1465 25.2111C56.1465 25.2111 59.5906 27.3972 61.1864 27.636C61.1864 27.636 55.4329 28.194 49.8235 26.5646C49.8235 26.5646 48.5596 25.0049 48.158 24.0639Z" fill="#434343"/>
<path d="M48.6895 25.0228C48.6895 25.0228 51.0192 22.9652 56.5032 27.6624C56.5032 27.6624 51.2405 27.2578 49.8236 26.5646C49.8236 26.5646 48.8925 25.325 48.6895 25.0228Z" fill="#AEACAB"/>
<path d="M67.4501 26.6629C67.4501 26.6629 63.1889 25.963 67.2929 24.4026C67.2929 24.4026 67.52 25.4939 67.4501 26.6629Z" fill="#4B4A4A"/>
</g>
<defs>
<filter id="filter0_d_36_2765" x="3.60815" y="10.3365" width="129.578" height="120.467" filterUnits="userSpaceOnUse" color-interpolation-filters="sRGB">
<feFlood flood-opacity="0" result="BackgroundImageFix"/>
<feColorMatrix in="SourceAlpha" type="matrix" values="0 0 0 0 0 0 0 0 0 0 0 0 0 0 0 0 0 0 127 0" result="hardAlpha"/>
<feOffset dy="9"/>
<feGaussianBlur stdDeviation="5"/>
<feComposite in2="hardAlpha" operator="out"/>
<feColorMatrix type="matrix" values="0 0 0 0 0 0 0 0 0 0 0 0 0 0 0 0 0 0 0.25 0"/>
<feBlend mode="normal" in2="BackgroundImageFix" result="effect1_dropShadow_36_2765"/>
<feBlend mode="normal" in="SourceGraphic" in2="effect1_dropShadow_36_2765" result="shape"/>
</filter>
</defs>
</svg>
